<?xml version="1.0" standalone="no"?>
<!DOCTYPE svg PUBLIC "-//W3C//DTD SVG 1.1//EN" "http://www.w3.org/Graphics/SVG/1.1/DTD/svg11.dtd" >
<svg xmlns="http://www.w3.org/2000/svg" xmlns:xlink="http://www.w3.org/1999/xlink" version="1.1">
<metadata>
Created by FontForge 20170731 at Sun Feb 12 04:19:07 2023
 By Aleksey,,,
</metadata>
<defs>
<font id="BlackCoffeeRegular" horiz-adv-x="0" >
  <font-face 
    font-family="Black Coffee"
    font-weight="400"
    font-stretch="normal"
    units-per-em="2048"
    panose-1="0 0 0 0 0 0 0 0 0 0"
    ascent="1638"
    descent="-410"
    x-height="971"
    cap-height="1441"
    bbox="-249.087 -722.525 1671.71 1648.06"
    underline-thickness="102"
    underline-position="-307"
    unicode-range="U+000A-F000"
  />
<missing-glyph horiz-adv-x="1079" 
d="M102 1434h875v-1434h-875v1434zM160 1393l379 -633l381 633h-760zM514 717l-369 614v-1231zM541 674l-379 -631h758zM565 717l371 -621v1239z" />
    <glyph glyph-name="tt.liga" unicode="tt" horiz-adv-x="1034" 
d="M1240 1317q28 6 45.5 -14.5t12.5 -45t-33 -30.5q-245 -50 -486 -68q-2 -42 -2 -61q-1 -110 -1 -331q0 -132 9 -330q4 -95 14 -142q4 -16 10.5 -31.5t16 -28.5t22.5 -10t26 27t41 25t46.5 -18.5t7.5 -45.5q-22 -53 -66.5 -80.5t-95 -26t-103.5 22.5q-33 15 -58.5 37.5
t-41.5 52t-27 57.5t-17.5 66.5t-9.5 66.5t-6 69q0 4 -0.5 7.5t-0.5 6.5q-16 199 -2 482q5 90 12 176q-5 0 -15 -0.5t-15 -0.5q-94 0 -227 7q-1 -20 -1 -58q-1 -110 -1 -331q0 -154 8 -330q4 -95 14 -142q4 -16 10.5 -31.5t16 -28.5t22.5 -10t26 27t41 25t46.5 -18.5
t7.5 -45.5q-22 -53 -66.5 -80.5t-95 -26t-103.5 22.5q-33 15 -58.5 37.5t-41.5 52t-27 57.5t-17.5 66.5t-9.5 66.5t-6 69q0 4 -0.5 7.5t-0.5 6.5q-16 199 -2 482q4 86 14 197q-159 9 -261 -31q-28 -11 -46 8t-13 47.5t33 39.5q111 43 297 32q12 103 57 160q25 28 62 20.5
t56 -36.5q36 -57 40 -160q95 -7 172 -8h93q6 62 18 103.5t42 80.5q25 28 62 20.5t56 -36.5q36 -57 40 -159q228 16 460 65z" />
    <glyph glyph-name=".notdef" horiz-adv-x="1079" 
d="M102 1434h875v-1434h-875v1434zM160 1393l379 -633l381 633h-760zM514 717l-369 614v-1231zM541 674l-379 -631h758zM565 717l371 -621v1239z" />
    <glyph glyph-name=".null" 
 />
    <glyph glyph-name=".null" 
 />
    <glyph glyph-name="nonmarkingreturn" horiz-adv-x="682" 
 />
    <glyph glyph-name="LF" unicode="&#xa;" 
 />
    <glyph glyph-name="controlCR" unicode="&#xd;" 
 />
    <glyph glyph-name="space" unicode=" " horiz-adv-x="516" 
 />
    <glyph glyph-name="exclam" unicode="!" horiz-adv-x="393" 
d="M279 294q-7 -40 -43.5 -54.5t-74 1.5t-47.5 53q-22 84 -30.5 190t-8 172.5t4.5 193.5q4 112 18 280q1 13 4 63.5t6 76t13 62.5t27 62q24 35 68 37.5t66 -37.5q14 -29 20 -68t6 -66.5t-2.5 -76t-2.5 -67.5q-1 -44 -1 -132.5t-1 -133.5q0 -38 0.5 -134.5t0 -148.5
t-6 -130.5t-16.5 -142.5zM314 108q0 -43 -3 -54q-10 -38 -35 -59q-25 -20 -51 -24q-17 -4 -36 2q-3 1 -10 4t-11 4q-2 1 -6.5 4.5t-6.5 5.5q-15 12 -25 28q-5 7 -11 23q-9 21 -11 66q-1 37 31 73q27 28 72 30q41 2 73 -30q30 -30 30 -73z" />
    <glyph glyph-name="quotedbl" unicode="&#x22;" horiz-adv-x="544" 
d="M132 1488q37 10 70.5 -6t50 -45t14 -65.5t-29.5 -63.5q-5 -5 -7.5 -11t-4 -17.5t-1.5 -13.5q-6 -24 -17 -50q-21 -50 -56 -89q-21 -23 -46.5 -14t-33 34.5t8.5 51.5q33 41 33 91q-68 37 -58 109q5 32 25.5 56t51.5 33zM359 1488q37 10 70.5 -6t50 -45t14 -65.5
t-29.5 -63.5q-5 -5 -7 -11.5t-3 -16.5t-2 -14q-6 -24 -17 -50q-20 -48 -57 -89q-21 -23 -46.5 -14t-33 34.5t8.5 51.5q33 41 33 91q-68 37 -58 109q5 32 25.5 56t51.5 33z" />
    <glyph glyph-name="quotedbl" unicode="&#x201c;" horiz-adv-x="544" 
d="M132 1488q37 10 70.5 -6t50 -45t14 -65.5t-29.5 -63.5q-5 -5 -7.5 -11t-4 -17.5t-1.5 -13.5q-6 -24 -17 -50q-21 -50 -56 -89q-21 -23 -46.5 -14t-33 34.5t8.5 51.5q33 41 33 91q-68 37 -58 109q5 32 25.5 56t51.5 33zM359 1488q37 10 70.5 -6t50 -45t14 -65.5
t-29.5 -63.5q-5 -5 -7 -11.5t-3 -16.5t-2 -14q-6 -24 -17 -50q-20 -48 -57 -89q-21 -23 -46.5 -14t-33 34.5t8.5 51.5q33 41 33 91q-68 37 -58 109q5 32 25.5 56t51.5 33z" />
    <glyph glyph-name="numbersign" unicode="#" horiz-adv-x="899" 
d="M796 641q28 -3 40 -28.5t0.5 -47.5t-40.5 -19q-56 6 -84 8q-15 -134 -48 -243q-11 -34 -46 -49.5t-69 -3t-40 52.5q-16 104 -11 254q0 1 -40 1l-41 -1q-14 -107 -38 -251q-6 -34 -33.5 -41.5t-54.5 10.5t-30 47q-18 157 -25 230q-71 -4 -110 -7q-33 -3 -46.5 23.5t0 54.5
t46.5 30q34 2 102 4q0 7 -1 21.5t-1 22.5q-38 -10 -55 -18q-68 -31 -101 17q-25 38 -9 85q16 50 64 49q13 0 27 -4q34 -10 72 -15q0 43 1 64q1 40 24 67t55 33.5t63.5 0t53 -33.5t21.5 -67q0 -22 -2 -66h35h44q0 4 5 50t7 69q5 61 57.5 86.5t101 0.5t44.5 -87q0 -2 -6 -128
q44 -2 64 -4q29 -2 41 -26.5t0 -47.5t-41 -21q-11 1 -34 2t-34 1q-2 -46 -4 -67q26 -2 76 -8zM504 664q1 10 2.5 29t2.5 28q-3 0 -10 0.5t-10 0.5h-55q-1 -9 -2.5 -27.5t-2.5 -28.5q12 0 37 -1t38 -1z" />
    <glyph glyph-name="dollar" unicode="$" horiz-adv-x="858" 
d="M618 638q104 -68 148 -186t5 -235q-24 -74 -82 -137.5t-131 -93.5q1 -17 2.5 -49t2.5 -48q2 -31 -22 -43t-49.5 0.5t-28.5 42.5q-1 12 -3.5 38t-3.5 38q-39 0 -70 9q-69 20 -106 71t-40 117t8 128.5t35 121.5q11 28 39.5 33.5t48 -12.5t9.5 -47q-110 -312 65 -320h4
q-17 242 -17 514q-43 2 -129 -8q-43 -4 -84 -6.5t-81.5 14t-63.5 53.5q-63 101 25 272q58 114 153.5 209.5t204.5 121.5q1 20 4 60.5t5 60.5q2 31 29 43.5t51.5 0t22.5 -43.5q-2 -19 -5 -57.5t-4 -57.5q50 -8 93.5 -35t71.5 -68q26 -38 37.5 -87t10 -94t-5.5 -95
q-3 -30 -29 -43t-50 -0.5t-22 43.5q7 45 4 105.5t-27 99.5q-35 57 -91 31q-9 -188 -11 -424q43 -14 77 -37zM433 696q3 142 11 316q-79 -82 -137 -190q-1 -1 -13 -23t-20 -37t-13.5 -33.5t-2.5 -27.5q1 2 3 2t9.5 -1.5t11.5 -1.5h69q28 0 82 -4zM684 262q19 71 -7 142
t-84 119q-24 20 -52 32q1 -230 12 -461q47 27 82 72.5t49 95.5z" />
    <glyph glyph-name="percent" unicode="%" horiz-adv-x="1292" 
d="M933 1291q-30 -127 -100 -359t-96 -333q-41 -155 -83 -358q-4 -17 -16 -81.5t-19 -94t-23 -77t-36 -82.5q-17 -31 -54 -40t-70 8t-40 54q-5 25 -7 51t0.5 57.5t3.5 50.5t8 57.5t9.5 50.5t12.5 56.5t11 50.5q38 176 86 357q3 12 10 37t10 38q-73 36 -143 88
q-33 -39 -71 -60.5t-85 -21.5t-95 28q-56 33 -83 107.5t-22 151t44 142.5t104 85q1 0 1 1l2 1q32 24 67 4q63 48 131 23q55 -21 80 -79.5t25 -126.5q0 -77 -42 -166q50 -40 115 -76q91 317 194 528q23 47 70 48t79.5 -36t21.5 -84zM286 870q10 7 28 23q-51 49 -81 101
q-4 -30 -1 -53q0 -3 1.5 -17t3 -23.5t5.5 -15.5q0 -38 44 -15zM387 1042q1 21 2.5 52t-10 61t-36.5 32q-21 2 -32 -16t-10 -39.5t3 -36.5q9 -32 48 -82q6 -8 22 -26q8 25 13 55zM977 523q84 -25 139.5 -91.5t68.5 -144t-19.5 -157t-110.5 -127.5q-86 -53 -174.5 -23
t-122.5 125q-35 101 -15 209.5t84 192.5q28 36 73.5 40t73.5 -23h1q1 -1 2 -1zM1006 109q62 32 76 92.5t-14.5 118t-81.5 88.5q-30 -103 -37 -186q-6 -80 5 -103q14 -29 52 -10z" />
    <glyph glyph-name="ampersand" unicode="&#x26;" horiz-adv-x="1292" 
d="M1146 844q65 -101 83.5 -221.5t-17.5 -235.5q-43 -130 -144 -227t-235 -138.5t-268 -15.5q-222 43 -365 227t-141 413q1 144 62.5 277t168.5 230q-5 16 -7 37q-3 49 21.5 95t66.5 75q39 27 99.5 44.5t126 13.5t100.5 -38q22 -21 28 -43.5t-3.5 -44t-24.5 -41t-40.5 -40
t-45.5 -34.5t-45 -30.5t-34 -23.5q-14 -10 -21 -16l46 -46q49 -55 166 -196t185 -213q18 45 19 91q1 39 33 51t59.5 -8t19.5 -58q-31 -144 -118 -246.5t-223 -136.5q-31 -8 -50.5 13.5t-13.5 50t36 37.5q98 30 166 98q-8 5 -13 11q-71 83 -213.5 228t-199.5 209q-1 1 -3.5 4
t-4.5 5q-74 -88 -112.5 -186t-34.5 -210t61 -215q51 -93 142 -154t191 -78t203.5 14.5t176.5 113.5q75 83 94.5 196.5t-20.5 217.5q-46 121 -157 204q-28 20 -61 34t-76 27t-66 22q-29 12 -39.5 43t5 56.5t51.5 22.5q107 -10 214.5 -87.5t171.5 -177.5zM422 1254
q-2 -6 -2 -9q81 44 177 64h-9q-1 0 -46 -3q-102 -8 -120 -52z" />
    <glyph glyph-name="quotesingle" unicode="'" horiz-adv-x="317" 
d="M132 1488q37 10 70.5 -6t50 -45t14 -65.5t-29.5 -63.5q-5 -5 -7.5 -11t-4 -17.5t-1.5 -13.5q-6 -24 -17 -50q-21 -50 -56 -89q-21 -23 -46.5 -14t-33 34.5t8.5 51.5q33 41 33 91q-68 37 -58 109q5 32 25.5 56t51.5 33z" />
    <glyph glyph-name="quotesingle" unicode="&#x2018;" horiz-adv-x="317" 
d="M132 1488q37 10 70.5 -6t50 -45t14 -65.5t-29.5 -63.5q-5 -5 -7.5 -11t-4 -17.5t-1.5 -13.5q-6 -24 -17 -50q-21 -50 -56 -89q-21 -23 -46.5 -14t-33 34.5t8.5 51.5q33 41 33 91q-68 37 -58 109q5 32 25.5 56t51.5 33z" />
    <glyph glyph-name="parenleft" unicode="(" horiz-adv-x="540" 
d="M497 6q15 -32 6 -58.5t-28.5 -44t-48.5 -17t-54 22.5q-95 84 -162 211t-98 254.5t-40 265.5q-13 207 39 415q23 95 71 204q20 47 29.5 67t32.5 54.5t48 54.5q55 44 109 12.5t43 -100.5q-4 -28 -17 -58.5t-31 -66t-26 -56.5q-33 -80 -54 -167q-43 -168 -34 -346
q3 -58 14.5 -118.5t24 -106t38.5 -111t41 -100t49.5 -108.5t47.5 -103z" />
    <glyph glyph-name="parenright" unicode=")" horiz-adv-x="540" 
d="M432 1043q49 -207 36 -403q-14 -215 -87.5 -411.5t-212.5 -319.5q-25 -22 -54.5 -22.5t-48.5 17t-28 44.5t6 58q13 29 47.5 103t49.5 108.5t41 100t38.5 111t24 106t14.5 118.5q9 184 -37 358q-22 83 -56 167q-8 18 -25 52t-28.5 62t-15.5 55q-7 44 17 76.5t60.5 35
t74.5 -23.5q26 -21 50 -57.5t34 -58.5t31 -71q43 -98 69 -205z" />
    <glyph glyph-name="asterisk" unicode="*" horiz-adv-x="468" 
d="M343 1389q27 12 50.5 -5t23.5 -40.5t-25 -38.5q-12 -5 -35.5 -15t-35.5 -16q6 -3 16.5 -10t15.5 -11q25 -16 23 -44.5t-23.5 -41t-48.5 0.5q-5 3 -15 9.5t-15 9.5v-27q0 -31 -25.5 -43.5t-50.5 0t-25 43.5v48q-7 -4 -22 -10.5t-23 -9.5q-27 -12 -50.5 5t-23.5 40.5
t25 38.5q6 2 18 7.5t18 8.5l-39 24q-15 10 -20.5 25.5t-0.5 29.5t15 25.5t25.5 13t31.5 -7.5q8 -5 23 -14.5t23 -14.5v27q0 19 11 32t26 16t30.5 0t26 -16t10.5 -32q0 -6 -0.5 -18t-0.5 -18q11 5 33.5 14.5t33.5 14.5z" />
    <glyph glyph-name="plus" unicode="+" horiz-adv-x="704" 
d="M609 628q31 -3 44 -28t0.5 -49t-44.5 -26q-58 -3 -185 -11q-2 -60 -4 -176q-1 -25 -18 -39.5t-37 -14.5t-37.5 14.5t-18.5 39.5q-1 28 -4 84.5t-4 84.5q-112 -6 -164 -8q-54 -2 -76 44.5t0.5 92t75.5 40.5q45 -4 149 -14q-14 114 -12 171q2 39 27.5 61t56 21.5t57 -22.5
t28.5 -60q4 -56 -9 -186l85.5 -9.5t89.5 -9.5z" />
    <glyph glyph-name="comma" unicode="," horiz-adv-x="313" 
d="M128 196q37 10 70 -6t50 -45t14 -65.5t-30 -63.5q-5 -5 -7 -11.5t-3 -16.5t-2 -14q-6 -24 -17 -50q-21 -50 -56 -89q-21 -23 -46.5 -14t-33 34.5t8.5 51.5q33 41 33 91q-69 38 -59 109q5 32 26 56t52 33z" />
    <glyph glyph-name="hyphen" unicode="-" horiz-adv-x="700" 
d="M605 628q31 -3 44 -28t0.5 -49t-44.5 -26q-425 -24 -472 -26q-54 -2 -76 44.5t0.5 92t75.5 40.5q70 -6 149 -14t174 -18.5t149 -15.5z" />
    <glyph glyph-name="period" unicode="." horiz-adv-x="282" 
d="M140 202q44 0 69 -30t25 -66.5t-25 -66.5t-69 -30t-69 30t-25 66.5t25 66.5t69 30z" />
    <glyph glyph-name="slash" unicode="/" horiz-adv-x="823" 
d="M569 1340q21 41 61.5 42t69 -31t18.5 -74q-12 -50 -30 -102.5t-47 -125.5t-39 -100q-19 -53 -58 -157.5t-59 -156.5q-21 -57 -69.5 -197.5t-88.5 -242t-86 -190.5q-19 -37 -56.5 -37.5t-63.5 28.5t-17 67q23 98 59.5 203t91 242.5t76.5 197.5l120 327q9 25 26.5 76
t28.5 82t28 73t35 76z" />
    <glyph glyph-name="zero" unicode="0" horiz-adv-x="913" 
d="M789 311q-35 -106 -77.5 -181.5t-112.5 -120.5q-76 -50 -167 -45.5t-161 62.5q-67 56 -103.5 139.5t-59.5 194.5q-47 226 -36 426q11 210 84 391q96 239 262 253q81 7 151 -42.5t110 -127.5q36 -72 50 -157q54 -59 77.5 -146.5t34.5 -200.5q21 -228 -52 -445zM463 119
q35 -11 67.5 2.5t55 38t44 64t33 67t22.5 61.5q61 176 52 367q-4 87 -16 151q-12 -20 -37 -20.5t-43.5 18t-13.5 46.5q11 57 5 142q-1 0 -2 2t-2 2q-17 14 -17 31.5t13 32.5q-28 149 -119 152q-22 1 -42 -8t-34.5 -21t-29 -35t-23 -38.5t-19 -44.5t-14.5 -40.5t-12 -37.5
q-97 -312 -19 -686q10 -48 18 -75.5t25 -68t44 -65.5t64 -37z" />
    <glyph glyph-name="one" unicode="1" horiz-adv-x="557" 
d="M444 46q30 4 48.5 -18t13 -48t-35.5 -30q-62 -9 -124 6q-6 1 -33 8.5t-39 9.5t-32 -1t-33 -15q-23 -21 -50.5 -11t-34 34.5t13.5 47.5q23 21 53 34v1q-22 99 -32 230.5t-10.5 200t0.5 232.5q0 315 12 441q-3 -2 -10 -6t-10 -6q-20 -12 -44 -2.5t-32 30t5 42.5
q92 124 139 185q28 36 68.5 43t72.5 -18.5t36 -72.5q3 -86 3.5 -110.5t-4 -111t-5.5 -110.5q-4 -103 -6 -304q0 -66 9 -319t-1 -318q-1 -21 -11 -38q44 -11 73 -6z" />
    <glyph glyph-name="two" unicode="2" horiz-adv-x="825" 
d="M285 81q-34 -25 -67 -30l1 1q-44 -11 -82.5 16t-37.5 74q1 43 22.5 82t66 90t56.5 68q75 105 136 221q120 227 191 503q54 212 -73 233q-64 11 -121 -24.5t-97 -96.5q-73 -111 -99 -261q-5 -24 -9 -61t-7 -89t5.5 -90t29.5 -44q29 -9 34.5 -36.5t-13 -48.5t-48.5 -13
q-33 9 -54.5 31t-31.5 55.5t-13.5 60t-5.5 65.5q-8 169 49 328q22 62 51.5 115.5t70.5 102t97 78.5t120 34q91 6 159 -44.5t99.5 -128t30.5 -164.5q-3 -267 -159 -585q-60 -123 -150 -253q-7 -10 -27.5 -41.5t-33.5 -49.5q6 -2 8 -3q50 -18 83 -35q8 -4 31 -19t42.5 -25.5
t43 -19.5t42.5 -6t30 21q18 28 49.5 25.5t45 -26.5t-0.5 -54q-30 -49 -82.5 -66.5t-109.5 -1.5q-21 6 -41.5 16t-46 24.5t-38.5 21.5q-99 47 -146 50z" />
    <glyph glyph-name="three" unicode="3" horiz-adv-x="847" 
d="M134 296q1 33 28.5 46t53.5 0t25 -46v-64.5t8.5 -62.5t23 -53.5t42.5 -37.5t67 -14q125 -1 217 144q115 185 54 289q-35 61 -105.5 64t-117.5 -47q-25 -26 -60.5 -30.5t-64.5 9.5t-51.5 39t-23.5 57.5t20 63.5q169 225 241 351q17 29 30 54t35.5 72.5t29.5 83t7 69.5
t-26 49t-75 6q-83 -14 -157 -81.5t-118 -151.5q-25 -47 -41 -106t-11 -125t46 -97q21 -16 14 -42t-28.5 -36t-44.5 2q-45 33 -67.5 86t-21 112t14 114.5t34.5 106.5q50 116 149.5 207.5t214.5 110.5q58 10 110 -7.5t86 -63.5q77 -103 40 -272q-36 -170 -158 -382
q115 -36 179 -129q44 -64 47.5 -143.5t-21 -148t-69.5 -137.5q-65 -99 -158 -154.5t-200 -37.5q-60 10 -102 42.5t-62.5 81t-28 99.5t-5.5 110z" />
    <glyph glyph-name="four" unicode="4" horiz-adv-x="989" 
d="M691 31q-12 42 -21 85.5t-13 93.5t-6 86.5t-0.5 96t2.5 87.5t4.5 95.5t4.5 88.5q-59 -1 -178 -4.5t-180 -5.5q-35 -1 -61 1.5t-56.5 10.5t-50.5 28.5t-29 52.5q-9 21 -3.5 51t12.5 51t24 50.5t30 49t31.5 46t27.5 41.5q127 208 218 352q10 16 26 21.5t30.5 0.5t26 -15
t13.5 -26t-7 -33q-35 -60 -144 -233.5t-163 -271.5q-21 -43 -9 -58t56 -15q20 0 43 0.5t51 1.5t43 1q42 1 126.5 3t126.5 3q7 236 11 303q1 21 2 80t3 94.5t14 82t34 75.5q28 37 68 37.5t67 -37.5q22 -31 32.5 -80.5t11 -83.5t-1.5 -99.5t-2 -82.5q0 -64 -2 -180.5
t-2 -154.5q-1 -39 0 -166t-1 -189.5t-15.5 -160.5t-40.5 -174q-12 -35 -44.5 -49.5t-65 -1t-43.5 50.5z" />
    <glyph glyph-name="five" unicode="5" horiz-adv-x="825" 
d="M727 1267q-196 -47 -390 5q7 -41 8 -85t-1.5 -109.5t-2.5 -81.5l-3 -168q0 -6 1 -29.5t0 -35.5q1 0 4 0.5t5 0.5q36 12 134 -23q68 -25 119 -65q91 -72 133 -195q25 -84 25 -165t-40.5 -157t-114.5 -119q-104 -61 -241 -45q-201 23 -271 105q-21 25 -25 56t7 56t32 44.5
t50 20.5t60 -16q19 -12 48.5 -40.5t46.5 -39.5q48 -32 118 -40q154 -16 203 77q30 54 26.5 120.5t-27.5 127t-72 107.5t-106 61q-37 9 -78.5 -4.5t-82 -27t-76.5 -5.5q-113 25 -102 203q15 241 19 293q1 8 4 53.5t5.5 61.5t7.5 50t13.5 59.5t20.5 49.5q20 39 60 36
q9 1 23 -4q214 -89 434 -37q29 7 47.5 -14t13 -47.5t-34.5 -33.5z" />
    <glyph glyph-name="six" unicode="6" horiz-adv-x="776" 
d="M487 327q63 -35 81.5 -107t-17.5 -134q-37 -64 -113 -87.5t-143 2.5q-131 47 -193 253q-43 143 -28 382q14 224 56 374q15 56 40 115t65.5 118.5t85.5 95t105.5 33.5t121.5 -56q88 -77 138 -308q39 -182 17 -365q-4 -30 -30 -42.5t-49.5 0t-20.5 42.5q17 150 -5 298
t-92 260q-13 21 -22 30t-21.5 8t-25.5 -19q-21 -28 -47 -103q-44 -123 -62 -251q-44 -303 -15 -531q0 -2 0.5 -5t1.5 -7t1 -6q84 59 171 10zM380 125q34 -20 64 8t19 64q-7 25 -29 36t-45 3.5t-33 -32.5q-6 -13 -15 -22q16 -43 39 -57z" />
    <glyph glyph-name="seven" unicode="7" horiz-adv-x="643" 
d="M349 67q-11 -34 -44.5 -56t-69 -24.5t-66 18t-36.5 62.5q-4 30 -5 62t2.5 67.5t7.5 62.5t12.5 67t13.5 61t16 64q1 5 1.5 7l1.5 6t2 7q28 112 110 372q10 31 30 92.5t30 92.5q3 10 28.5 78t32.5 104q4 19 2 27t-18 19q-8 6 -23 9t-26.5 3.5t-30 0.5h-23.5
q-101 4 -224 -11q-31 -4 -43.5 20.5t0 51.5t43.5 30q67 8 87 10t84.5 5t98 -1.5t80 -18t78.5 -37.5q41 -30 62 -69.5t21.5 -91.5t-5 -88t-18.5 -97q-15 -68 -33.5 -139.5t-47.5 -173t-39 -138.5q-32 -121 -53 -226q-3 -17 -14.5 -101.5t-24.5 -126.5z" />
    <glyph glyph-name="eight" unicode="8" horiz-adv-x="778" 
d="M559 41q-123 -75 -267 -43q-84 19 -139 88t-71 160q-29 164 10 372q19 103 55 193q21 52 65 121q-88 116 -71 241q10 74 48.5 130t104.5 82q59 24 121 11.5t104 -61.5q38 -45 55.5 -118.5t7.5 -133.5q-15 -97 -128 -243q3 -4 31 -34.5t34.5 -38t29.5 -34t33 -39.5
t26.5 -36t28.5 -42.5t23 -40.5q48 -92 57.5 -191.5t-30 -193.5t-128.5 -149zM267 1165q8 -70 58 -154q1 0 3 -1q8 10 33 39.5t37 44.5t29 40t28 48q20 41 -11 78.5t-76 34.5q-49 -4 -77.5 -42.5t-23.5 -87.5zM305 487q-5 -48 -6.5 -70.5t-1.5 -72.5t7 -80t25 -65t46 -55
q69 -49 142.5 6.5t93.5 133.5q38 150 -103 337q-43 57 -120 138q-15 -14 -30 -19q-42 -142 -53 -253z" />
    <glyph glyph-name="nine" unicode="9" horiz-adv-x="759" 
d="M615 1171q64 -167 73 -391q8 -216 -40 -391q-66 -241 -185 -328q-70 -54 -159 -48.5t-147 73.5q-39 45 -51.5 108.5t-7 113.5t21.5 120q7 29 35 38t52.5 -6.5t22.5 -45.5q-2 -31 -2 -57.5t4 -73t23.5 -69t52.5 -12.5q18 6 33.5 24.5t27.5 49.5t19 53.5t16 58t10 40.5
q42 157 44 340q-64 -48 -138 -49q-83 -1 -149.5 56.5t-89.5 140.5q-15 45 -11.5 100t15 111.5t39.5 107.5t63.5 88t87 52t108.5 0q170 -44 232 -204zM268 831q94 -41 186 71q-4 63 -7 91q-1 11 -4 49t-6 60t-9 54t-17 56t-27 42q-26 29 -54.5 29t-51.5 -21t-43.5 -53
t-33.5 -61.5t-18 -51.5q-10 -50 -10.5 -100t24 -97t71.5 -68z" />
    <glyph glyph-name="colon" unicode=":" horiz-adv-x="303" 
d="M151 619q-44 0 -69 30t-25 66.5t25 66.5t69 30t69 -30t25 -66.5t-25 -66.5t-69 -30zM151 486q44 0 69 -30t25 -66.5t-25 -66.5t-69 -30t-69 30t-25 66.5t25 66.5t69 30z" />
    <glyph glyph-name="semicolon" unicode=";" horiz-adv-x="337" 
d="M155 619q-44 0 -69 30t-25 66.5t25 66.5t69 30t69 -30t25 -66.5t-25 -66.5t-69 -30zM142 509q37 10 70.5 -6t50 -45t14 -65.5t-29.5 -63.5q-5 -5 -7 -11.5t-3 -17t-2 -14.5q-6 -24 -17 -50q-20 -48 -56 -88q-21 -23 -47 -14.5t-33.5 34t8.5 51.5q33 41 33 91
q-68 37 -58 109q5 32 25.5 56.5t51.5 33.5z" />
    <glyph glyph-name="less" unicode="&#x3c;" horiz-adv-x="477" 
d="M265 778q16 -33 51.5 -90.5t60 -107t33.5 -97.5q5 -26 -6 -49t-30 -34.5t-43.5 -9.5t-45.5 21q-53 48 -112.5 162.5t-91.5 153.5q-58 72 0 139q9 11 45.5 55t53.5 62.5t48 49t59 50.5q27 20 55.5 14.5t46 -27.5t25 -50.5t-7.5 -55.5q-16 -31 -42 -67t-44.5 -57.5
t-54.5 -61.5z" />
    <glyph glyph-name="equal" unicode="=" horiz-adv-x="718" 
d="M141 627q-54 -2 -76 44.5t0.5 92t75.5 40.5q70 -6 149 -14t174 -18.5t149 -15.5q31 -3 44 -28t0.5 -49t-44.5 -26q-425 -24 -472 -26zM613 543q31 -3 44 -28t0.5 -49t-44.5 -26q-425 -24 -472 -26q-54 -2 -76 44.5t0.5 92t75.5 40.5q70 -6 149 -14t174 -18.5t149 -15.5z
" />
    <glyph glyph-name="greater" unicode="&#x3e;" horiz-adv-x="477" 
d="M396 866q58 -68 0 -139q-31 -39 -64 -102t-66.5 -120t-74.5 -94q-21 -19 -45.5 -21t-43.5 9.5t-30 34.5t-6 49q9 48 33.5 97.5t60 107t51.5 90.5q-36 40 -54.5 61.5t-44.5 57.5t-42 67q-13 25 -7.5 55.5t25 50.5t46 27.5t55.5 -14.5q28 -20 59.5 -51t47 -48t55 -64
t45.5 -54z" />
    <glyph glyph-name="question" unicode="?" horiz-adv-x="694" 
d="M564 1330q32 -35 50.5 -74.5t26 -74.5t3 -79.5t-12 -77t-27 -80.5t-32.5 -75.5t-37 -76.5q-79 -160 -123 -305q-10 -33 -22 -101t-28 -120.5t-44 -90.5q-33 -44 -80.5 -37.5t-68.5 56.5q-14 34 -15.5 75.5t3.5 70t16 76.5q3 11 4 17q27 118 66 219q26 66 64 141t66 121.5
t80 132.5q22 36 36 71.5t13.5 79t-26.5 72.5q-38 41 -98 44t-105 -27q-69 -40 -93 -115.5t-5 -152.5t69 -134q21 -24 10 -53.5t-36 -36.5t-49 15q-91 107 -103.5 241.5t71.5 249.5q80 101 208.5 112.5t218.5 -83.5zM335 38q17 -17 23 -39q0 -4 1 -11.5t2 -11.5q0 -21 -7 -34
q-7 -18 -19 -29q-10 -12 -28 -18q-15 -8 -34 -8q-22 0 -45 13q-3 3 -8.5 6.5t-8.5 6.5q-17 17 -23 39l-3 24q0 21 7 34q6 16 19 28q10 12 28 18q15 8 34 8q24 0 45 -12q3 -2 8.5 -7t8.5 -7z" />
    <glyph glyph-name="at" unicode="@" horiz-adv-x="1402" 
d="M1255 645q8 29 35 34.5t48 -13t13 -47.5q-29 -115 -94 -218t-153.5 -177t-197 -119t-225 -45t-236.5 45q-126 51 -215 148.5t-128.5 216t-37 251.5t50.5 257q44 112 130.5 199t194 131.5t229.5 52.5t236 -36q126 -46 214.5 -143.5t124 -215t16 -248.5t-97.5 -240
q-32 -44 -56.5 -73t-64.5 -60t-80 -42q-62 -17 -120 9t-93 83q-54 87 -48 249q-21 -30 -33 -46t-34 -40.5t-40.5 -37.5t-45 -23t-55.5 -11q-62 -2 -108 33t-67.5 88.5t-19.5 113.5q3 94 54 171.5t137 104.5q70 21 133.5 1.5t132.5 -68.5q11 30 29 62q20 38 65.5 44.5
t80.5 -20t30 -71.5q-3 -24 -10.5 -79.5t-12 -96.5t-5.5 -79q0 -2 -2 -41.5t-2 -62.5t6 -52.5t19 -40.5q11 -10 24.5 -10.5t27 6.5t26 16.5t24.5 23.5t20 24t15 20q71 100 77 220q7 139 -65 251.5t-193 168.5t-257 41q-114 -13 -219 -92.5t-170.5 -191.5t-79.5 -226
q-18 -145 37 -276t171 -214.5t263 -90.5q108 -5 208.5 30.5t178 101.5t133.5 156t82 194zM507 703q8 -91 126 38q8 9 23 26l20 22q-16 21 -16 49q0 18 -16.5 26.5t-35.5 8t-32 -6.5q-24 -11 -43 -46q-31 -56 -26 -117z" />
    <glyph glyph-name="A" unicode="A" horiz-adv-x="739" 
d="M100 -9q-4 -28 -28.5 -39.5t-46 0t-18.5 39.5q33 261 72 446q-18 10 -22 31.5t7.5 40.5t35.5 21q137 571 446 911q11 11 25 14v1q13 8 32.5 6t29.5 -14q21 -26 32.5 -56.5t13.5 -71t1 -64.5t-6.5 -75.5t-6.5 -64.5q-16 -187 -23 -353q-8 -177 -3 -355q2 -124 4 -190
q4 -41 2.5 -95.5t-15.5 -93.5q-14 -37 -47.5 -56.5t-70.5 -11t-59 44.5q-17 29 -29 63t-17.5 83.5t-7.5 71.5t-3.5 87t-1.5 70q-2 42 -2 62q-37 -2 -110 -4.5t-109 -3.5q-43 -199 -75 -444zM440 1137q-155 -255 -242 -603q33 1 98.5 3t97.5 3q2 125 7 223q11 188 39 374z
" />
    <glyph glyph-name="A" unicode="&#xc5;" horiz-adv-x="739" 
d="M100 -9q-4 -28 -28.5 -39.5t-46 0t-18.5 39.5q33 261 72 446q-18 10 -22 31.5t7.5 40.5t35.5 21q137 571 446 911q11 11 25 14v1q13 8 32.5 6t29.5 -14q21 -26 32.5 -56.5t13.5 -71t1 -64.5t-6.5 -75.5t-6.5 -64.5q-16 -187 -23 -353q-8 -177 -3 -355q2 -124 4 -190
q4 -41 2.5 -95.5t-15.5 -93.5q-14 -37 -47.5 -56.5t-70.5 -11t-59 44.5q-17 29 -29 63t-17.5 83.5t-7.5 71.5t-3.5 87t-1.5 70q-2 42 -2 62q-37 -2 -110 -4.5t-109 -3.5q-43 -199 -75 -444zM440 1137q-155 -255 -242 -603q33 1 98.5 3t97.5 3q2 125 7 223q11 188 39 374z
" />
    <glyph glyph-name="A" unicode="&#xc4;" horiz-adv-x="739" 
d="M100 -9q-4 -28 -28.5 -39.5t-46 0t-18.5 39.5q33 261 72 446q-18 10 -22 31.5t7.5 40.5t35.5 21q137 571 446 911q11 11 25 14v1q13 8 32.5 6t29.5 -14q21 -26 32.5 -56.5t13.5 -71t1 -64.5t-6.5 -75.5t-6.5 -64.5q-16 -187 -23 -353q-8 -177 -3 -355q2 -124 4 -190
q4 -41 2.5 -95.5t-15.5 -93.5q-14 -37 -47.5 -56.5t-70.5 -11t-59 44.5q-17 29 -29 63t-17.5 83.5t-7.5 71.5t-3.5 87t-1.5 70q-2 42 -2 62q-37 -2 -110 -4.5t-109 -3.5q-43 -199 -75 -444zM440 1137q-155 -255 -242 -603q33 1 98.5 3t97.5 3q2 125 7 223q11 188 39 374z
" />
    <glyph glyph-name="A" unicode="&#xc3;" horiz-adv-x="739" 
d="M100 -9q-4 -28 -28.5 -39.5t-46 0t-18.5 39.5q33 261 72 446q-18 10 -22 31.5t7.5 40.5t35.5 21q137 571 446 911q11 11 25 14v1q13 8 32.5 6t29.5 -14q21 -26 32.5 -56.5t13.5 -71t1 -64.5t-6.5 -75.5t-6.5 -64.5q-16 -187 -23 -353q-8 -177 -3 -355q2 -124 4 -190
q4 -41 2.5 -95.5t-15.5 -93.5q-14 -37 -47.5 -56.5t-70.5 -11t-59 44.5q-17 29 -29 63t-17.5 83.5t-7.5 71.5t-3.5 87t-1.5 70q-2 42 -2 62q-37 -2 -110 -4.5t-109 -3.5q-43 -199 -75 -444zM440 1137q-155 -255 -242 -603q33 1 98.5 3t97.5 3q2 125 7 223q11 188 39 374z
" />
    <glyph glyph-name="A" unicode="&#xc2;" horiz-adv-x="739" 
d="M100 -9q-4 -28 -28.5 -39.5t-46 0t-18.5 39.5q33 261 72 446q-18 10 -22 31.5t7.5 40.5t35.5 21q137 571 446 911q11 11 25 14v1q13 8 32.5 6t29.5 -14q21 -26 32.5 -56.5t13.5 -71t1 -64.5t-6.5 -75.5t-6.5 -64.5q-16 -187 -23 -353q-8 -177 -3 -355q2 -124 4 -190
q4 -41 2.5 -95.5t-15.5 -93.5q-14 -37 -47.5 -56.5t-70.5 -11t-59 44.5q-17 29 -29 63t-17.5 83.5t-7.5 71.5t-3.5 87t-1.5 70q-2 42 -2 62q-37 -2 -110 -4.5t-109 -3.5q-43 -199 -75 -444zM440 1137q-155 -255 -242 -603q33 1 98.5 3t97.5 3q2 125 7 223q11 188 39 374z
" />
    <glyph glyph-name="A" unicode="&#xc1;" horiz-adv-x="739" 
d="M100 -9q-4 -28 -28.5 -39.5t-46 0t-18.5 39.5q33 261 72 446q-18 10 -22 31.5t7.5 40.5t35.5 21q137 571 446 911q11 11 25 14v1q13 8 32.5 6t29.5 -14q21 -26 32.5 -56.5t13.5 -71t1 -64.5t-6.5 -75.5t-6.5 -64.5q-16 -187 -23 -353q-8 -177 -3 -355q2 -124 4 -190
q4 -41 2.5 -95.5t-15.5 -93.5q-14 -37 -47.5 -56.5t-70.5 -11t-59 44.5q-17 29 -29 63t-17.5 83.5t-7.5 71.5t-3.5 87t-1.5 70q-2 42 -2 62q-37 -2 -110 -4.5t-109 -3.5q-43 -199 -75 -444zM440 1137q-155 -255 -242 -603q33 1 98.5 3t97.5 3q2 125 7 223q11 188 39 374z
" />
    <glyph glyph-name="A" unicode="&#xc0;" horiz-adv-x="739" 
d="M100 -9q-4 -28 -28.5 -39.5t-46 0t-18.5 39.5q33 261 72 446q-18 10 -22 31.5t7.5 40.5t35.5 21q137 571 446 911q11 11 25 14v1q13 8 32.5 6t29.5 -14q21 -26 32.5 -56.5t13.5 -71t1 -64.5t-6.5 -75.5t-6.5 -64.5q-16 -187 -23 -353q-8 -177 -3 -355q2 -124 4 -190
q4 -41 2.5 -95.5t-15.5 -93.5q-14 -37 -47.5 -56.5t-70.5 -11t-59 44.5q-17 29 -29 63t-17.5 83.5t-7.5 71.5t-3.5 87t-1.5 70q-2 42 -2 62q-37 -2 -110 -4.5t-109 -3.5q-43 -199 -75 -444zM440 1137q-155 -255 -242 -603q33 1 98.5 3t97.5 3q2 125 7 223q11 188 39 374z
" />
    <glyph glyph-name="B" unicode="B" horiz-adv-x="823" 
d="M194 229q-29 -21 -67 -9.5t-45 49.5q-12 65 -16.5 146.5t-4.5 127.5t4 156.5t5 134.5q2 49 4 147t4 147q0 19 -0.5 65t0 73t8 63.5t22.5 63.5q22 39 71.5 40t70.5 -40q22 -43 25 -102l1 1q0 2 1 2q29 39 64 68t76 47t85.5 11t83.5 -43q41 -37 57 -86t8 -101.5t-25.5 -99
t-44.5 -94.5q-44 -77 -116 -140q76 -30 136 -93q72 29 148 41q29 5 47.5 -16.5t13 -47t-34.5 -30.5q-51 -8 -114 -30q70 -128 67 -274.5t-81 -271.5q-46 -75 -122 -111t-156.5 -17t-131.5 96q-38 57 -43 127zM591 543q-3 47 -26 93q-94 -55 -160 -134q-88 -106 -104 -209
q-6 -35 2 -74.5t35 -67.5t68 -19q52 12 92 60.5t60 112.5t28.5 126.5t4.5 111.5zM267 1046l-3 -129q12 6 38.5 16.5t40.5 18.5q55 28 104 71q27 23 50 54t40 67.5t16.5 75.5t-23.5 69q-22 29 -50 32t-52 -13t-49 -45t-41 -54t-28 -48q-27 -53 -43 -115zM261 763
q-2 -221 -10 -311q26 50 70 104q76 95 183 159q-51 44 -114 58t-129 -10z" />
    <glyph glyph-name="C" unicode="C" horiz-adv-x="743" 
d="M605 174q-21 -44 -39 -74.5t-46.5 -66t-64 -56t-77.5 -24.5q-75 -7 -134 27t-93.5 88.5t-58 131t-32 140t-12.5 130.5q-11 206 25.5 410.5t128.5 359.5q47 80 121 120t157 14q67 -22 116.5 -70t59.5 -112q10 -65 -22.5 -115t-82 -68.5t-105.5 -5.5t-89 61
q-88 -265 -94 -516q-4 -164 21 -274q6 -25 14 -51.5t22.5 -60.5t35 -55.5t43.5 -20.5q10 0 21 5.5t20.5 12.5t19.5 20t17.5 24t16.5 28t15 28t14 29.5t11 26.5t9.5 24.5t7.5 18.5q52 128 67 272q3 29 28.5 41t48.5 0t20 -41q-20 -215 -110 -401zM505 1241q-55 10 -104 -73
q19 -9 26 -30q15 -46 59.5 -47.5t65.5 40.5q15 28 0 66t-47 44z" />
    <glyph glyph-name="C" unicode="&#xc7;" horiz-adv-x="743" 
d="M605 174q-21 -44 -39 -74.5t-46.5 -66t-64 -56t-77.5 -24.5q-75 -7 -134 27t-93.5 88.5t-58 131t-32 140t-12.5 130.5q-11 206 25.5 410.5t128.5 359.5q47 80 121 120t157 14q67 -22 116.5 -70t59.5 -112q10 -65 -22.5 -115t-82 -68.5t-105.5 -5.5t-89 61
q-88 -265 -94 -516q-4 -164 21 -274q6 -25 14 -51.5t22.5 -60.5t35 -55.5t43.5 -20.5q10 0 21 5.5t20.5 12.5t19.5 20t17.5 24t16.5 28t15 28t14 29.5t11 26.5t9.5 24.5t7.5 18.5q52 128 67 272q3 29 28.5 41t48.5 0t20 -41q-20 -215 -110 -401zM505 1241q-55 10 -104 -73
q19 -9 26 -30q15 -46 59.5 -47.5t65.5 40.5q15 28 0 66t-47 44z" />
    <glyph glyph-name="D" unicode="D" horiz-adv-x="1013" 
d="M206 238q-27 -29 -71.5 -20t-52.5 51q-12 65 -16.5 146.5t-4.5 127.5t4 156.5t5 134.5q2 49 4 147t4 147q0 19 -0.5 65t0 73t8 63.5t22.5 63.5q22 39 71.5 40t70.5 -40q28 -57 26 -146q17 27 31 45q55 69 134 85t152 -35q135 -103 178 -355q36 -210 0 -417
q102 49 187 112q22 17 43.5 3t22.5 -38.5t-19 -43.5q-126 -91 -258 -143q-46 -167 -140 -300q-28 -40 -64 -71.5t-78.5 -53t-90.5 -18.5t-90 35t-62.5 82.5t-15.5 103.5zM397 199q61 61 113 199q-91 -22 -145 -62q-36 -27 -55 -64.5t-3 -73.5q8 -17 19 -24t23.5 -4t24 10
t23.5 19zM262 834q-1 -36 -2 -122.5t-2 -135.5t-7 -120t-16 -129q23 38 56.5 66.5t82 47.5t80 28t90.5 23q81 260 45 553q-13 109 -23 143q-37 131 -135 79q-22 -11 -41 -32.5t-31 -40t-25.5 -54.5t-18.5 -51t-16.5 -57t-13.5 -47q-11 -36 -21 -79q0 -12 -1 -36t-1 -36z" />
    <glyph glyph-name="E" unicode="E" horiz-adv-x="731" 
d="M464 -32q-122 -56 -221 10t-123 198q-23 130 -28.5 299t0.5 302q0 7 0.5 22t0.5 23q-3 0 -8 0.5t-7 0.5q-30 2 -42 28t0 49.5t42 21.5q3 0 9.5 -1t9.5 -1q6 110 11 164q0 4 2.5 31.5t3 34.5t3 32t4.5 35t6 31.5t8 34.5t9.5 30.5t13 31.5t15.5 28q24 39 70 35q10 13 26 17
q67 15 112 21t105 -1t107 -35q62 -37 87 -103t-1 -134q-14 -33 -43 -36t-47 20.5t-4 55.5q20 46 -14.5 83.5t-84.5 48.5q-61 14 -168 -9q12 -41 13 -97.5t-2 -99.5q-1 -37 -4 -111.5t-4 -111.5v-5q153 -1 307 9q30 2 42 -21.5t0 -49.5t-42 -28q-137 -11 -309 -9
q-3 -176 1 -329q6 -207 6 -209q0 -3 0.5 -18.5t1 -20.5t1.5 -19.5t2.5 -21t3.5 -19t5.5 -20t8 -17t10.5 -16.5q25 -32 55.5 -30t56.5 22.5t43 50.5q16 29 26 70.5t12 64.5t6 75q2 30 27 42.5t48.5 0t22.5 -42.5q-2 -53 -7 -95.5t-18 -93t-33 -89t-54 -73.5t-80 -56z" />
    <glyph glyph-name="E" unicode="&#xcb;" horiz-adv-x="731" 
d="M464 -32q-122 -56 -221 10t-123 198q-23 130 -28.5 299t0.5 302q0 7 0.5 22t0.5 23q-3 0 -8 0.5t-7 0.5q-30 2 -42 28t0 49.5t42 21.5q3 0 9.5 -1t9.5 -1q6 110 11 164q0 4 2.5 31.5t3 34.5t3 32t4.5 35t6 31.5t8 34.5t9.5 30.5t13 31.5t15.5 28q24 39 70 35q10 13 26 17
q67 15 112 21t105 -1t107 -35q62 -37 87 -103t-1 -134q-14 -33 -43 -36t-47 20.5t-4 55.5q20 46 -14.5 83.5t-84.5 48.5q-61 14 -168 -9q12 -41 13 -97.5t-2 -99.5q-1 -37 -4 -111.5t-4 -111.5v-5q153 -1 307 9q30 2 42 -21.5t0 -49.5t-42 -28q-137 -11 -309 -9
q-3 -176 1 -329q6 -207 6 -209q0 -3 0.5 -18.5t1 -20.5t1.5 -19.5t2.5 -21t3.5 -19t5.5 -20t8 -17t10.5 -16.5q25 -32 55.5 -30t56.5 22.5t43 50.5q16 29 26 70.5t12 64.5t6 75q2 30 27 42.5t48.5 0t22.5 -42.5q-2 -53 -7 -95.5t-18 -93t-33 -89t-54 -73.5t-80 -56z" />
    <glyph glyph-name="E" unicode="&#xca;" horiz-adv-x="731" 
d="M464 -32q-122 -56 -221 10t-123 198q-23 130 -28.5 299t0.5 302q0 7 0.5 22t0.5 23q-3 0 -8 0.5t-7 0.5q-30 2 -42 28t0 49.5t42 21.5q3 0 9.5 -1t9.5 -1q6 110 11 164q0 4 2.5 31.5t3 34.5t3 32t4.5 35t6 31.5t8 34.5t9.5 30.5t13 31.5t15.5 28q24 39 70 35q10 13 26 17
q67 15 112 21t105 -1t107 -35q62 -37 87 -103t-1 -134q-14 -33 -43 -36t-47 20.5t-4 55.5q20 46 -14.5 83.5t-84.5 48.5q-61 14 -168 -9q12 -41 13 -97.5t-2 -99.5q-1 -37 -4 -111.5t-4 -111.5v-5q153 -1 307 9q30 2 42 -21.5t0 -49.5t-42 -28q-137 -11 -309 -9
q-3 -176 1 -329q6 -207 6 -209q0 -3 0.5 -18.5t1 -20.5t1.5 -19.5t2.5 -21t3.5 -19t5.5 -20t8 -17t10.5 -16.5q25 -32 55.5 -30t56.5 22.5t43 50.5q16 29 26 70.5t12 64.5t6 75q2 30 27 42.5t48.5 0t22.5 -42.5q-2 -53 -7 -95.5t-18 -93t-33 -89t-54 -73.5t-80 -56z" />
    <glyph glyph-name="E" unicode="&#xc9;" horiz-adv-x="731" 
d="M464 -32q-122 -56 -221 10t-123 198q-23 130 -28.5 299t0.5 302q0 7 0.5 22t0.5 23q-3 0 -8 0.5t-7 0.5q-30 2 -42 28t0 49.5t42 21.5q3 0 9.5 -1t9.5 -1q6 110 11 164q0 4 2.5 31.5t3 34.5t3 32t4.5 35t6 31.5t8 34.5t9.5 30.5t13 31.5t15.5 28q24 39 70 35q10 13 26 17
q67 15 112 21t105 -1t107 -35q62 -37 87 -103t-1 -134q-14 -33 -43 -36t-47 20.5t-4 55.5q20 46 -14.5 83.5t-84.5 48.5q-61 14 -168 -9q12 -41 13 -97.5t-2 -99.5q-1 -37 -4 -111.5t-4 -111.5v-5q153 -1 307 9q30 2 42 -21.5t0 -49.5t-42 -28q-137 -11 -309 -9
q-3 -176 1 -329q6 -207 6 -209q0 -3 0.5 -18.5t1 -20.5t1.5 -19.5t2.5 -21t3.5 -19t5.5 -20t8 -17t10.5 -16.5q25 -32 55.5 -30t56.5 22.5t43 50.5q16 29 26 70.5t12 64.5t6 75q2 30 27 42.5t48.5 0t22.5 -42.5q-2 -53 -7 -95.5t-18 -93t-33 -89t-54 -73.5t-80 -56z" />
    <glyph glyph-name="E" unicode="&#xc8;" horiz-adv-x="731" 
d="M464 -32q-122 -56 -221 10t-123 198q-23 130 -28.5 299t0.5 302q0 7 0.5 22t0.5 23q-3 0 -8 0.5t-7 0.5q-30 2 -42 28t0 49.5t42 21.5q3 0 9.5 -1t9.5 -1q6 110 11 164q0 4 2.5 31.5t3 34.5t3 32t4.5 35t6 31.5t8 34.5t9.5 30.5t13 31.5t15.5 28q24 39 70 35q10 13 26 17
q67 15 112 21t105 -1t107 -35q62 -37 87 -103t-1 -134q-14 -33 -43 -36t-47 20.5t-4 55.5q20 46 -14.5 83.5t-84.5 48.5q-61 14 -168 -9q12 -41 13 -97.5t-2 -99.5q-1 -37 -4 -111.5t-4 -111.5v-5q153 -1 307 9q30 2 42 -21.5t0 -49.5t-42 -28q-137 -11 -309 -9
q-3 -176 1 -329q6 -207 6 -209q0 -3 0.5 -18.5t1 -20.5t1.5 -19.5t2.5 -21t3.5 -19t5.5 -20t8 -17t10.5 -16.5q25 -32 55.5 -30t56.5 22.5t43 50.5q16 29 26 70.5t12 64.5t6 75q2 30 27 42.5t48.5 0t22.5 -42.5q-2 -53 -7 -95.5t-18 -93t-33 -89t-54 -73.5t-80 -56z" />
    <glyph glyph-name="F" unicode="F" horiz-adv-x="684" 
d="M255 1425q67 15 112 21t105 -1t107 -35q62 -37 87 -103t-1 -134q-14 -33 -43 -36t-47 20.5t-4 55.5q20 46 -14.5 83.5t-84.5 48.5q-61 14 -180 -12q0 -1 0.5 -4t0.5 -4q4 -90 4.5 -112t-3 -113t-4.5 -112q0 -15 -1 -44.5t-1 -44.5q49 0 147 0.5t147 0.5q30 0 42.5 -25
t0 -50t-42.5 -25h-296q0 -20 -1 -61t-2 -61q-1 -54 -1 -161.5t-1 -161.5q-1 -164 -42 -312q-6 -22 -24 -34t-37.5 -12t-37.5 12t-24 34q-44 153 -44 326q0 162 3 324q1 50 1.5 159.5t1.5 174.5t7.5 157t19.5 167q8 49 47.5 64t76.5 -5q9 11 26 15z" />
    <glyph glyph-name="G" unicode="G" horiz-adv-x="1005" 
d="M931 885q26 13 50 -3.5t24.5 -41t-24.5 -40.5q-50 -25 -115 -30q2 -8 2 -14q2 -80 -11 -229t-14 -178q-2 -41 -3 -128t-5.5 -153.5t-16.5 -126.5q-6 -31 -28 -46t-47 -12.5t-49 18.5t-34 40q-21 51 -32 116q-3 -3 -8.5 -8t-8.5 -7q-63 -49 -136.5 -56.5t-144.5 28.5
q-72 37 -128.5 104t-91.5 147t-53.5 163.5t-21.5 165.5q-6 170 45 346t147 314q50 72 118.5 116.5t147.5 44.5q62 0 124 -28.5t97 -75.5q39 -53 43 -113.5t-21 -110t-75.5 -84.5t-113.5 -40q-28 -2 -39.5 20t0 46t39.5 27q72 7 103 72t-14 123q-28 35 -63.5 36.5t-65 -18.5
t-56.5 -54q-136 -169 -190 -490q-24 -139 -6 -280q22 -172 74 -262q41 -69 103.5 -85t126.5 35q33 29 57 72q0 69 11 170q27 257 107 401q-39 5 -77 4.5t-84 -8t-66 -36t-2 -75.5q10 -27 -8 -44t-45 -12t-37 31q-27 70 9.5 135t108.5 92q53 20 133 13.5t135.5 -14
t129.5 22.5z" />
    <glyph glyph-name="H" unicode="H" horiz-adv-x="997" 
d="M926 586q30 -5 35.5 -31.5t-13.5 -49t-49 -17.5q-2 0 -5 1t-4 1q0 -22 -0.5 -67t-0.5 -68q-1 -160 -43 -312q-6 -22 -24 -34t-37 -12t-37 12t-24 34q-45 156 -45 326q0 97 1 145q-196 17 -386 5q0 -109 -1 -164q-1 -160 -43 -312q-6 -22 -24 -34t-37.5 -12t-37.5 12
t-24 34q-44 153 -44 326q0 22 0.5 66.5t0.5 66.5q-36 12 -37 51.5t38 51.5q0 30 2 88q1 52 1 160t1 174t7.5 157.5t19.5 166.5q7 41 36 58t61.5 10t60 -32.5t30.5 -61.5q4 -90 4.5 -112t-3 -113t-4.5 -112q-4 -154 -6 -310q0 -10 -0.5 -29.5t-0.5 -29.5q195 7 388 -6
q0 13 0.5 39t0.5 40q1 52 1 160t1 174t7.5 158t19.5 167q7 41 36.5 58t62 10t60 -32.5t30.5 -61.5q4 -85 4 -112t-3.5 -112.5t-4.5 -112.5q-4 -154 -6 -310q0 -14 -0.5 -43t-0.5 -44q6 -1 18 -2.5t18 -2.5z" />
    <glyph glyph-name="I" unicode="I" horiz-adv-x="489" 
d="M428 1441q35 5 52 -27q16 -30 -4 -50q-9 -9 -23 -11q-66 -11 -132 -15q2 -8 2 -13q4 -90 4.5 -112t-3 -113t-4.5 -112q-4 -154 -6 -310q0 -54 -1 -161.5t-2 -161.5q-1 -143 -33 -275q51 -2 102 -12q29 -6 34.5 -32t-13 -47t-47.5 -15q-117 23 -237 -7q-28 -8 -46 12.5
t-12.5 46.5t33.5 34q19 5 47 10q-37 142 -37 299q0 162 3 324q1 51 1.5 157t1.5 170.5t7 154t18 163.5q-17 1 -56 5q-26 3 -37.5 26t-0.5 43.5t38 18.5q184 -17 351 10z" />
    <glyph glyph-name="I" unicode="&#xcf;" horiz-adv-x="489" 
d="M428 1441q35 5 52 -27q16 -30 -4 -50q-9 -9 -23 -11q-66 -11 -132 -15q2 -8 2 -13q4 -90 4.5 -112t-3 -113t-4.5 -112q-4 -154 -6 -310q0 -54 -1 -161.5t-2 -161.5q-1 -143 -33 -275q51 -2 102 -12q29 -6 34.5 -32t-13 -47t-47.5 -15q-117 23 -237 -7q-28 -8 -46 12.5
t-12.5 46.5t33.5 34q19 5 47 10q-37 142 -37 299q0 162 3 324q1 51 1.5 157t1.5 170.5t7 154t18 163.5q-17 1 -56 5q-26 3 -37.5 26t-0.5 43.5t38 18.5q184 -17 351 10z" />
    <glyph glyph-name="I" unicode="&#xce;" horiz-adv-x="489" 
d="M428 1441q35 5 52 -27q16 -30 -4 -50q-9 -9 -23 -11q-66 -11 -132 -15q2 -8 2 -13q4 -90 4.5 -112t-3 -113t-4.5 -112q-4 -154 -6 -310q0 -54 -1 -161.5t-2 -161.5q-1 -143 -33 -275q51 -2 102 -12q29 -6 34.5 -32t-13 -47t-47.5 -15q-117 23 -237 -7q-28 -8 -46 12.5
t-12.5 46.5t33.5 34q19 5 47 10q-37 142 -37 299q0 162 3 324q1 51 1.5 157t1.5 170.5t7 154t18 163.5q-17 1 -56 5q-26 3 -37.5 26t-0.5 43.5t38 18.5q184 -17 351 10z" />
    <glyph glyph-name="I" unicode="&#xcd;" horiz-adv-x="489" 
d="M428 1441q35 5 52 -27q16 -30 -4 -50q-9 -9 -23 -11q-66 -11 -132 -15q2 -8 2 -13q4 -90 4.5 -112t-3 -113t-4.5 -112q-4 -154 -6 -310q0 -54 -1 -161.5t-2 -161.5q-1 -143 -33 -275q51 -2 102 -12q29 -6 34.5 -32t-13 -47t-47.5 -15q-117 23 -237 -7q-28 -8 -46 12.5
t-12.5 46.5t33.5 34q19 5 47 10q-37 142 -37 299q0 162 3 324q1 51 1.5 157t1.5 170.5t7 154t18 163.5q-17 1 -56 5q-26 3 -37.5 26t-0.5 43.5t38 18.5q184 -17 351 10z" />
    <glyph glyph-name="I" unicode="&#xcc;" horiz-adv-x="489" 
d="M428 1441q35 5 52 -27q16 -30 -4 -50q-9 -9 -23 -11q-66 -11 -132 -15q2 -8 2 -13q4 -90 4.5 -112t-3 -113t-4.5 -112q-4 -154 -6 -310q0 -54 -1 -161.5t-2 -161.5q-1 -143 -33 -275q51 -2 102 -12q29 -6 34.5 -32t-13 -47t-47.5 -15q-117 23 -237 -7q-28 -8 -46 12.5
t-12.5 46.5t33.5 34q19 5 47 10q-37 142 -37 299q0 162 3 324q1 51 1.5 157t1.5 170.5t7 154t18 163.5q-17 1 -56 5q-26 3 -37.5 26t-0.5 43.5t38 18.5q184 -17 351 10z" />
    <glyph glyph-name="J" unicode="J" horiz-adv-x="796" 
d="M628 1248q22 -585 23 -724q0 -23 2 -81.5t1.5 -94t-3 -92t-12 -96t-25.5 -83.5t-44 -77t-66 -55q-78 -42 -162 -29.5t-158 65t-112 124.5q-34 65 -44 136.5t4 149t32 135.5t50 140q7 17 24.5 20.5t30 -8t5.5 -28.5q-26 -68 -38 -101.5t-30 -101.5t-20 -113t8.5 -102
t39.5 -102q33 -51 86.5 -83.5t100.5 -4.5q74 44 86 142q9 76 9 163.5t-4.5 194.5t-4.5 164q0 180 2 542q0 25 10 48q-186 -12 -279 -14q-35 -1 -50 28.5t0 58.5t50 29q104 -1 309.5 -10t308.5 -10q19 0 27 -15.5t0 -31.5t-27 -16q-97 -4 -149 -7q18 -26 19 -60z" />
    <glyph glyph-name="K" unicode="K" horiz-adv-x="905" 
d="M675 908q-108 -95 -230 -192q-74 -61 -108 -86q73 -48 146.5 -124t126 -144t125.5 -147t142 -130q25 -18 22 -49t-25 -43t-49 3q-52 38 -107.5 93.5t-82 86t-90.5 109.5q-4 4 -6 6.5t-5 6t-5 6.5q-45 55 -75.5 89t-78 76t-93.5 69q0 -122 -1 -183q-1 -164 -42 -312
q-6 -22 -24 -34t-37.5 -12t-37.5 12t-24 34q-44 153 -44 326q0 161 3 323q1 50 1.5 159.5t1.5 175t7.5 157.5t19.5 167q7 41 36 58t61.5 10t60 -32.5t30.5 -61.5q4 -90 4.5 -112t-3 -113t-4.5 -112q0 -25 -2 -74.5t-2 -74.5q31 24 40 32q73 61 215 189q15 14 99 91
t116.5 105.5t97 80.5t119.5 89q42 28 80.5 -11.5t12.5 -81.5q-70 -112 -164.5 -211.5t-226.5 -213.5z" />
    <glyph glyph-name="L" unicode="L" horiz-adv-x="714" 
d="M283 678q-1 -54 -1 -161.5t-1 -161.5q-2 -113 -20 -213q62 29 133 27q26 -1 64.5 -10.5t66.5 -18.5t66 -11t63 12q18 7 35 4t27.5 -15t15.5 -26.5t-1.5 -30t-23.5 -24.5q-83 -44 -206 -9q-70 23 -129 21t-125 -36q-12 -5 -20 -5q-22 -28 -61 -21t-50 44q-44 153 -44 326
q0 162 3 324q1 50 1.5 159.5t1.5 174.5t7.5 157t19.5 167q7 41 36 58t61.5 10t60 -32.5t30.5 -61.5q4 -90 4.5 -112t-3 -113t-4.5 -112q-6 -205 -7 -310z" />
    <glyph glyph-name="M" unicode="M" horiz-adv-x="1132" 
d="M871 1351q7 41 36.5 58t62 10t60 -32.5t30.5 -61.5q4 -85 4 -112t-3.5 -112.5t-4.5 -112.5q-4 -154 -6 -310q0 -54 -1 -161.5t-1 -161.5q-1 -160 -43 -312q-6 -22 -24 -34t-37 -12t-37 12t-24 34q-45 156 -45 326q0 107 4 323v130.5t1 131.5q-17 -36 -50.5 -108
t-50.5 -107q-18 -38 -53.5 -112.5t-53.5 -112.5q-14 -29 -25.5 -47t-33.5 -35.5t-49 -19.5q-39 -3 -62 23.5t-39 70.5q-17 46 -46.5 129.5t-39.5 110.5q-9 24 -26.5 72.5t-26.5 72.5q-2 -71 -4 -213q-1 -54 -1 -161.5t-1 -161.5q-1 -164 -42 -312q-6 -22 -24 -34t-37.5 -12
t-37.5 12t-24 34q-44 153 -44 326q0 161 3 323q1 50 1.5 159.5t1.5 175t7.5 157.5t19.5 167q7 41 36 58t61.5 10t60 -32.5t30.5 -61.5q6 -65 4 -141q7 -18 21.5 -52.5t19.5 -48.5q11 -31 33 -93.5t33 -93.5q12 -35 37.5 -106.5t38.5 -107.5q4 -13 13.5 -39.5t14.5 -40.5
q3 -9 9.5 -27t9.5 -27q1 -1 2 -2.5t1 -2.5q17 27 42.5 86t28.5 65q16 34 48 100.5t48 99.5q14 29 41.5 87.5t41.5 87.5q1 2 33 61t42 90q1 8 2.5 25t2.5 26q-5 29 8 59z" />
    <glyph glyph-name="N" unicode="N" horiz-adv-x="968" 
d="M745 1408q25 29 67 23t60 -39q19 -34 26 -83t6.5 -82.5t-5.5 -97t-6 -82.5q-12 -258 -13 -334q-1 -51 -2 -213t-5.5 -269.5t-17.5 -211.5q-4 -31 -27 -53.5t-50.5 -28t-53 9.5t-33.5 50q-28 122 -41 261l-252 528q-79 164 -108 231v-29q-6 -205 -7 -310q-1 -54 -1 -161.5
t-1 -161.5q-1 -164 -42 -312q-6 -22 -24 -34t-37.5 -12t-37.5 12t-24 34q-44 153 -44 326q0 162 3 324q1 50 1.5 159.5t1.5 174.5t7.5 157t19.5 167q6 37 31 55t55.5 14.5t57.5 -22.5q11 -5 18 -16q23 -25 26 -57l3 -39q10 -34 22 -68.5t27 -72.5t26.5 -64.5t31.5 -70
t29.5 -64t33.5 -70t31 -64.5q23 -49 70.5 -148.5t71.5 -148.5q0 66 4 198q8 242 20 361q2 16 5.5 66t7 75.5t11.5 65.5t22.5 71t35.5 56z" />
    <glyph glyph-name="N" unicode="&#xd1;" horiz-adv-x="968" 
d="M745 1408q25 29 67 23t60 -39q19 -34 26 -83t6.5 -82.5t-5.5 -97t-6 -82.5q-12 -258 -13 -334q-1 -51 -2 -213t-5.5 -269.5t-17.5 -211.5q-4 -31 -27 -53.5t-50.5 -28t-53 9.5t-33.5 50q-28 122 -41 261l-252 528q-79 164 -108 231v-29q-6 -205 -7 -310q-1 -54 -1 -161.5
t-1 -161.5q-1 -164 -42 -312q-6 -22 -24 -34t-37.5 -12t-37.5 12t-24 34q-44 153 -44 326q0 162 3 324q1 50 1.5 159.5t1.5 174.5t7.5 157t19.5 167q6 37 31 55t55.5 14.5t57.5 -22.5q11 -5 18 -16q23 -25 26 -57l3 -39q10 -34 22 -68.5t27 -72.5t26.5 -64.5t31.5 -70
t29.5 -64t33.5 -70t31 -64.5q23 -49 70.5 -148.5t71.5 -148.5q0 66 4 198q8 242 20 361q2 16 5.5 66t7 75.5t11.5 65.5t22.5 71t35.5 56z" />
    <glyph glyph-name="O" unicode="O" horiz-adv-x="894" 
d="M555 1286q52 2 100.5 -27t80.5 -84q78 -132 105.5 -302.5t6 -336t-82.5 -309.5q-31 -73 -78.5 -128.5t-118 -87t-147.5 -16.5q-116 22 -193 109t-121 213q-85 243 -60 519q29 315 146 489q55 81 157 90t167 -66q22 -26 38 -63zM641 218q65 107 92.5 243.5t18.5 269.5
t-47 257q-31 103 -56 141q-13 20 -29 35q-22 21 -41 25q13 -120 -33 -296q-8 -30 -36 -35t-49 14t-12 48q30 101 31 197q-6 -11 -14 -33q-70 -190 -3 -398q9 -28 -10.5 -45.5t-46 -12.5t-35.5 32q-43 120 -37 263.5t67 256.5q25 46 60 72q-27 69 -83 61q-13 -26 -33 -113
q-24 -99 -42 -196q-35 -194 -24 -391q10 -199 81 -367q14 -33 26.5 -55.5t37 -46t53.5 -28.5q49 -8 91.5 22.5t72.5 79.5z" />
    <glyph glyph-name="O" unicode="&#xd8;" horiz-adv-x="894" 
d="M555 1286q52 2 100.5 -27t80.5 -84q78 -132 105.5 -302.5t6 -336t-82.5 -309.5q-31 -73 -78.5 -128.5t-118 -87t-147.5 -16.5q-116 22 -193 109t-121 213q-85 243 -60 519q29 315 146 489q55 81 157 90t167 -66q22 -26 38 -63zM641 218q65 107 92.5 243.5t18.5 269.5
t-47 257q-31 103 -56 141q-13 20 -29 35q-22 21 -41 25q13 -120 -33 -296q-8 -30 -36 -35t-49 14t-12 48q30 101 31 197q-6 -11 -14 -33q-70 -190 -3 -398q9 -28 -10.5 -45.5t-46 -12.5t-35.5 32q-43 120 -37 263.5t67 256.5q25 46 60 72q-27 69 -83 61q-13 -26 -33 -113
q-24 -99 -42 -196q-35 -194 -24 -391q10 -199 81 -367q14 -33 26.5 -55.5t37 -46t53.5 -28.5q49 -8 91.5 22.5t72.5 79.5z" />
    <glyph glyph-name="O" unicode="&#xd6;" horiz-adv-x="894" 
d="M555 1286q52 2 100.5 -27t80.5 -84q78 -132 105.5 -302.5t6 -336t-82.5 -309.5q-31 -73 -78.5 -128.5t-118 -87t-147.5 -16.5q-116 22 -193 109t-121 213q-85 243 -60 519q29 315 146 489q55 81 157 90t167 -66q22 -26 38 -63zM641 218q65 107 92.5 243.5t18.5 269.5
t-47 257q-31 103 -56 141q-13 20 -29 35q-22 21 -41 25q13 -120 -33 -296q-8 -30 -36 -35t-49 14t-12 48q30 101 31 197q-6 -11 -14 -33q-70 -190 -3 -398q9 -28 -10.5 -45.5t-46 -12.5t-35.5 32q-43 120 -37 263.5t67 256.5q25 46 60 72q-27 69 -83 61q-13 -26 -33 -113
q-24 -99 -42 -196q-35 -194 -24 -391q10 -199 81 -367q14 -33 26.5 -55.5t37 -46t53.5 -28.5q49 -8 91.5 22.5t72.5 79.5z" />
    <glyph glyph-name="O" unicode="&#xd5;" horiz-adv-x="894" 
d="M555 1286q52 2 100.5 -27t80.5 -84q78 -132 105.5 -302.5t6 -336t-82.5 -309.5q-31 -73 -78.5 -128.5t-118 -87t-147.5 -16.5q-116 22 -193 109t-121 213q-85 243 -60 519q29 315 146 489q55 81 157 90t167 -66q22 -26 38 -63zM641 218q65 107 92.5 243.5t18.5 269.5
t-47 257q-31 103 -56 141q-13 20 -29 35q-22 21 -41 25q13 -120 -33 -296q-8 -30 -36 -35t-49 14t-12 48q30 101 31 197q-6 -11 -14 -33q-70 -190 -3 -398q9 -28 -10.5 -45.5t-46 -12.5t-35.5 32q-43 120 -37 263.5t67 256.5q25 46 60 72q-27 69 -83 61q-13 -26 -33 -113
q-24 -99 -42 -196q-35 -194 -24 -391q10 -199 81 -367q14 -33 26.5 -55.5t37 -46t53.5 -28.5q49 -8 91.5 22.5t72.5 79.5z" />
    <glyph glyph-name="O" unicode="&#xd4;" horiz-adv-x="894" 
d="M555 1286q52 2 100.5 -27t80.5 -84q78 -132 105.5 -302.5t6 -336t-82.5 -309.5q-31 -73 -78.5 -128.5t-118 -87t-147.5 -16.5q-116 22 -193 109t-121 213q-85 243 -60 519q29 315 146 489q55 81 157 90t167 -66q22 -26 38 -63zM641 218q65 107 92.5 243.5t18.5 269.5
t-47 257q-31 103 -56 141q-13 20 -29 35q-22 21 -41 25q13 -120 -33 -296q-8 -30 -36 -35t-49 14t-12 48q30 101 31 197q-6 -11 -14 -33q-70 -190 -3 -398q9 -28 -10.5 -45.5t-46 -12.5t-35.5 32q-43 120 -37 263.5t67 256.5q25 46 60 72q-27 69 -83 61q-13 -26 -33 -113
q-24 -99 -42 -196q-35 -194 -24 -391q10 -199 81 -367q14 -33 26.5 -55.5t37 -46t53.5 -28.5q49 -8 91.5 22.5t72.5 79.5z" />
    <glyph glyph-name="O" unicode="&#xd3;" horiz-adv-x="894" 
d="M555 1286q52 2 100.5 -27t80.5 -84q78 -132 105.5 -302.5t6 -336t-82.5 -309.5q-31 -73 -78.5 -128.5t-118 -87t-147.5 -16.5q-116 22 -193 109t-121 213q-85 243 -60 519q29 315 146 489q55 81 157 90t167 -66q22 -26 38 -63zM641 218q65 107 92.5 243.5t18.5 269.5
t-47 257q-31 103 -56 141q-13 20 -29 35q-22 21 -41 25q13 -120 -33 -296q-8 -30 -36 -35t-49 14t-12 48q30 101 31 197q-6 -11 -14 -33q-70 -190 -3 -398q9 -28 -10.5 -45.5t-46 -12.5t-35.5 32q-43 120 -37 263.5t67 256.5q25 46 60 72q-27 69 -83 61q-13 -26 -33 -113
q-24 -99 -42 -196q-35 -194 -24 -391q10 -199 81 -367q14 -33 26.5 -55.5t37 -46t53.5 -28.5q49 -8 91.5 22.5t72.5 79.5z" />
    <glyph glyph-name="O" unicode="&#xd2;" horiz-adv-x="894" 
d="M555 1286q52 2 100.5 -27t80.5 -84q78 -132 105.5 -302.5t6 -336t-82.5 -309.5q-31 -73 -78.5 -128.5t-118 -87t-147.5 -16.5q-116 22 -193 109t-121 213q-85 243 -60 519q29 315 146 489q55 81 157 90t167 -66q22 -26 38 -63zM641 218q65 107 92.5 243.5t18.5 269.5
t-47 257q-31 103 -56 141q-13 20 -29 35q-22 21 -41 25q13 -120 -33 -296q-8 -30 -36 -35t-49 14t-12 48q30 101 31 197q-6 -11 -14 -33q-70 -190 -3 -398q9 -28 -10.5 -45.5t-46 -12.5t-35.5 32q-43 120 -37 263.5t67 256.5q25 46 60 72q-27 69 -83 61q-13 -26 -33 -113
q-24 -99 -42 -196q-35 -194 -24 -391q10 -199 81 -367q14 -33 26.5 -55.5t37 -46t53.5 -28.5q49 -8 91.5 22.5t72.5 79.5z" />
    <glyph glyph-name="P" unicode="P" horiz-adv-x="870" 
d="M849 867q-4 -115 -49.5 -228.5t-120 -202.5t-181 -142t-222.5 -48q-9 -99 -37 -203q-6 -22 -24 -34t-37.5 -12t-37.5 12t-24 34q-44 153 -44 326q0 162 3 324q1 50 1.5 159.5t1.5 174.5t7.5 157t19.5 167q6 37 30 54t56 15q5 3 12 5q125 34 238.5 5.5t214.5 -108.5
q99 -78 148.5 -200t44.5 -255zM281 401q160 38 264 160.5t123 292.5q21 195 -87 357q-48 73 -126 106.5t-165 25.5q1 -3 1.5 -6t1 -6.5t0.5 -5.5q4 -90 4.5 -112t-3 -113t-4.5 -112q-6 -205 -7 -310q-1 -46 -1 -138.5t-1 -138.5z" />
    <glyph glyph-name="Q" unicode="Q" horiz-adv-x="948" 
d="M682 -7q-20 16 -52 54q-96 -73 -209 -52q-116 22 -193 109t-121 213q-85 243 -60 519q29 315 146 489q55 81 157 90t167 -66q22 -26 38 -63q52 2 100.5 -27t80.5 -84q78 -132 105.5 -302.5t6 -336t-82.5 -309.5q-26 -62 -67 -113q18 -20 35.5 -36t38 -28t37 -8t26.5 27
q14 34 53 32q33 -2 43 -27q5 -14 -2 -31q-21 -50 -64 -73.5t-92 -16.5t-91 40zM477 116q42 -7 82 17q-15 15 -19 18q-68 52 -154 41q39 -67 91 -76zM627 198q13 18 14 20q65 107 92.5 243.5t18.5 269.5t-47 257q-31 103 -56 141q-13 20 -29 35q-22 21 -41 25
q13 -120 -33 -296q-8 -30 -36 -35t-49 14t-12 48q30 101 31 197q-6 -11 -14 -33q-70 -190 -3 -398q9 -28 -10.5 -45.5t-46 -12.5t-35.5 32q-43 120 -37 263.5t67 256.5q25 46 60 72q-27 69 -83 61q-13 -26 -33 -113q-24 -99 -42 -196q-35 -194 -24 -391q10 -182 69 -335
q113 26 211 -27q36 -19 68 -53z" />
    <glyph glyph-name="R" unicode="R" horiz-adv-x="874" 
d="M850 980q-3 -188 -132.5 -334.5t-312.5 -184.5q63 -53 97 -125q7 -16 17 -46.5t19.5 -59t21.5 -60.5t27.5 -54.5t34.5 -36.5t44.5 -10.5t55.5 26.5q22 17 46 3.5t28.5 -38t-12.5 -45.5q-78 -67 -170.5 -57.5t-163.5 82.5q-25 25 -42.5 62.5t-25 65t-17.5 73.5
q-2 8 -7.5 40t-9.5 45.5t-12.5 36t-22 35.5t-31.5 20q0 -10 -0.5 -31t-0.5 -32q-1 -164 -42 -312q-6 -22 -24 -34t-37.5 -12t-37.5 12t-24 34q-44 153 -44 326q0 162 3 324q1 50 1.5 159.5t1.5 174.5t7.5 157t19.5 167q6 35 28 52.5t52 16.5q6 4 18 8q63 16 130 17t130 -14
t121.5 -42t107 -68.5t84.5 -92.5t55.5 -114.5t18.5 -133.5zM669 968q17 151 -101 279q-52 56 -125.5 79.5t-153.5 17.5q2 -7 4 -19q4 -90 4.5 -112t-3 -113t-4.5 -112q-6 -205 -7 -310v-71q73 16 136 45t117.5 72t89 105.5t43.5 138.5z" />
    <glyph glyph-name="S" unicode="S" horiz-adv-x="714" 
d="M367 760q20 -34 65.5 -103.5t78 -125t56.5 -108.5q96 -214 5 -332q-44 -57 -115 -85t-143 -18q-71 10 -129 54t-81 110q-14 39 -14 79.5t12 81t27.5 74t38.5 73.5q9 16 25 22t30 1t26 -15.5t14 -26.5t-7 -33q-12 -21 -18 -32.5t-16.5 -32t-15 -35.5t-9 -34.5t-4 -37.5
t5.5 -36q12 -45 51 -73.5t86 -26.5q57 1 79.5 31t12 76t-27 83.5t-38.5 72.5q-29 46 -83 120.5t-90.5 129t-75 124t-58.5 142t-20 146.5q0 76 28.5 153t77.5 137t122.5 91.5t155.5 16.5q68 -12 120.5 -49t82.5 -87.5t48 -113.5t16 -127t-13 -127q-6 -29 -32.5 -34.5
t-47.5 13t-15 47.5q23 115 -12 222q-43 131 -113 139q-34 4 -74 -33t-68 -80q-36 -52 -44 -121q-16 -123 100 -312z" />
    <glyph glyph-name="T" unicode="T" horiz-adv-x="653" 
d="M847 1427q31 0 43.5 -25.5t0 -50.5t-43.5 -25q-64 0 -192 -0.5t-192 -0.5q4 -90 4.5 -112t-3 -113t-4.5 -112q-4 -154 -6 -310q0 -54 -1 -161.5t-2 -161.5q-1 -164 -42 -312q-6 -22 -24 -34t-37.5 -12t-37.5 12t-24 34q-44 153 -44 326q0 161 3 323q1 51 1.5 153.5
t1.5 166.5t6.5 152t16.5 160q-3 0 -8 -0.5t-8 -0.5q-37 -1 -103.5 -10.5t-94.5 -11.5q-49 -3 -69 39t0.5 84t68.5 38q30 -2 96 -12.5t102 -12.5q66 -3 197 -5q66 -1 197.5 -2.5t197.5 -2.5z" />
    <glyph glyph-name="U" unicode="U" horiz-adv-x="940" 
d="M97 1336q11 57 62 71.5t97.5 -16t47.5 -84.5q2 -94 -10.5 -321.5t-4.5 -350.5q13 -195 49 -323q10 -36 20 -62.5t26.5 -58t40.5 -53t55 -31.5q42 -13 81 0t68 45t49 67t34 74q53 151 67 330q10 136 0 317q-4 78 -14 172q-6 58 -10 92q0 3 -1 25.5t-3.5 37t-7.5 20.5
q-27 31 -15 70t54 45t64.5 -29t3.5 -72q-4 -16 -3 -29.5t6 -37.5t6 -30q8 -67 11 -106q11 -105 15 -211q8 -215 -22 -407q-11 -70 -26.5 -132t-46 -132.5t-70 -119.5t-100.5 -81.5t-136 -31.5q-323 5 -403 489q-69 419 16 864z" />
    <glyph glyph-name="U" unicode="&#xdc;" horiz-adv-x="940" 
d="M97 1336q11 57 62 71.5t97.5 -16t47.5 -84.5q2 -94 -10.5 -321.5t-4.5 -350.5q13 -195 49 -323q10 -36 20 -62.5t26.5 -58t40.5 -53t55 -31.5q42 -13 81 0t68 45t49 67t34 74q53 151 67 330q10 136 0 317q-4 78 -14 172q-6 58 -10 92q0 3 -1 25.5t-3.5 37t-7.5 20.5
q-27 31 -15 70t54 45t64.5 -29t3.5 -72q-4 -16 -3 -29.5t6 -37.5t6 -30q8 -67 11 -106q11 -105 15 -211q8 -215 -22 -407q-11 -70 -26.5 -132t-46 -132.5t-70 -119.5t-100.5 -81.5t-136 -31.5q-323 5 -403 489q-69 419 16 864z" />
    <glyph glyph-name="U" unicode="&#xdb;" horiz-adv-x="940" 
d="M97 1336q11 57 62 71.5t97.5 -16t47.5 -84.5q2 -94 -10.5 -321.5t-4.5 -350.5q13 -195 49 -323q10 -36 20 -62.5t26.5 -58t40.5 -53t55 -31.5q42 -13 81 0t68 45t49 67t34 74q53 151 67 330q10 136 0 317q-4 78 -14 172q-6 58 -10 92q0 3 -1 25.5t-3.5 37t-7.5 20.5
q-27 31 -15 70t54 45t64.5 -29t3.5 -72q-4 -16 -3 -29.5t6 -37.5t6 -30q8 -67 11 -106q11 -105 15 -211q8 -215 -22 -407q-11 -70 -26.5 -132t-46 -132.5t-70 -119.5t-100.5 -81.5t-136 -31.5q-323 5 -403 489q-69 419 16 864z" />
    <glyph glyph-name="U" unicode="&#xda;" horiz-adv-x="940" 
d="M97 1336q11 57 62 71.5t97.5 -16t47.5 -84.5q2 -94 -10.5 -321.5t-4.5 -350.5q13 -195 49 -323q10 -36 20 -62.5t26.5 -58t40.5 -53t55 -31.5q42 -13 81 0t68 45t49 67t34 74q53 151 67 330q10 136 0 317q-4 78 -14 172q-6 58 -10 92q0 3 -1 25.5t-3.5 37t-7.5 20.5
q-27 31 -15 70t54 45t64.5 -29t3.5 -72q-4 -16 -3 -29.5t6 -37.5t6 -30q8 -67 11 -106q11 -105 15 -211q8 -215 -22 -407q-11 -70 -26.5 -132t-46 -132.5t-70 -119.5t-100.5 -81.5t-136 -31.5q-323 5 -403 489q-69 419 16 864z" />
    <glyph glyph-name="U" unicode="&#xd9;" horiz-adv-x="940" 
d="M97 1336q11 57 62 71.5t97.5 -16t47.5 -84.5q2 -94 -10.5 -321.5t-4.5 -350.5q13 -195 49 -323q10 -36 20 -62.5t26.5 -58t40.5 -53t55 -31.5q42 -13 81 0t68 45t49 67t34 74q53 151 67 330q10 136 0 317q-4 78 -14 172q-6 58 -10 92q0 3 -1 25.5t-3.5 37t-7.5 20.5
q-27 31 -15 70t54 45t64.5 -29t3.5 -72q-4 -16 -3 -29.5t6 -37.5t6 -30q8 -67 11 -106q11 -105 15 -211q8 -215 -22 -407q-11 -70 -26.5 -132t-46 -132.5t-70 -119.5t-100.5 -81.5t-136 -31.5q-323 5 -403 489q-69 419 16 864z" />
    <glyph glyph-name="V" unicode="V" horiz-adv-x="860" 
d="M263 156q-62 188 -112 395t-78 373q-4 25 -17 96t-19.5 108.5t-11 95.5t-2.5 104q1 29 17 51t39 30t47.5 6.5t45 -18.5t29.5 -45q15 -49 25.5 -107.5t19.5 -130.5t16 -110q32 -178 61 -321q26 -124 77 -333l39 -159l6 -27q13 43 26 94q16 52 46 158q45 163 84 316
q45 178 80 332l36 159q3 18 7.5 51.5t10 58.5t15.5 50q11 25 36 34t46.5 -4.5t21.5 -43.5q0 -32 -6.5 -64.5t-18 -73.5t-16.5 -63l-42 -186q-38 -162 -92 -370q-20 -75 -58 -211.5t-51 -183.5q-3 -10 -14.5 -63t-20.5 -82t-32 -63t-54 -43q-18 -6 -35 -5.5t-30 4t-26 14.5
t-22 19.5t-19 26.5t-15.5 28t-13.5 31.5t-11 30t-10 29.5q-1 2 -1.5 4l-1 4t-1.5 4z" />
    <glyph glyph-name="W" unicode="W" horiz-adv-x="1413" 
d="M651 240l-12 36q-39 -135 -118 -208q-57 -53 -130 -56.5t-136.5 35t-100.5 104.5q-21 39 -36.5 91t-21.5 86.5t-15 96.5q-22 155 -23 303q-5 378 63 638q14 55 64.5 70t95 -14t45.5 -84q2 -92 -16 -262t-21 -209q-19 -296 -9 -457q8 -144 29 -206q14 -42 40.5 -62.5
t59 -13t62.5 42.5q38 45 63.5 114t33.5 114t20 131q-6 66 -7 99q-6 85 -3 200.5t25 197.5q8 30 34.5 47.5t56 18.5t55 -16t31.5 -50q9 -47 11 -99t0 -120t-1 -99q3 -167 16 -317q17 -191 64 -275q24 -43 65.5 -58t84.5 -3t80 42q53 44 87 113.5t47.5 159t16.5 152.5t3 151
q-1 157 -23 322q-23 177 -83 326q-22 54 26 85q42 28 89 13q53 -16 51 -76q-5 -126 22 -393.5t16 -410.5q-6 -71 -14 -128.5t-27 -131.5t-46 -129.5t-73 -106t-105 -77.5q-65 -31 -137.5 -27.5t-132.5 43.5q-103 69 -166 257z" />
    <glyph glyph-name="X" unicode="X" horiz-adv-x="845" 
d="M682 -33q-11 15 -21 32t-18.5 31t-18.5 34t-15.5 31.5t-16 35t-14.5 32.5t-14.5 35t-13 33t-14 36.5t-13.5 34.5q-20 53 -61.5 157.5t-62.5 156.5q-78 -160 -140 -297q-49 -111 -86 -197q-9 -20 -30.5 -94.5t-44.5 -107.5q-20 -29 -50.5 -30.5t-50.5 21.5t-14 57
q7 39 44.5 108.5t40.5 76.5q15 32 42.5 98t42.5 99q84 190 174 378q3 5 8 15.5t7 15.5q-132 337 -209 573q-13 40 10 79t64 51q43 12 77.5 -10t52.5 -64q79 -189 140 -355q6 11 17.5 33.5t16.5 34.5q15 32 43.5 94t47 100t48 88.5t59.5 89.5q16 20 42 21.5t47.5 -11
t33 -35.5t1.5 -47q-24 -58 -59.5 -118.5t-82 -132.5t-70.5 -113q-54 -93 -88 -158q30 -82 64 -182q19 -55 61 -166.5t67 -180.5t51 -167t35 -181q4 -35 -21 -53t-58 -12.5t-50 30.5z" />
    <glyph glyph-name="Y" unicode="Y" horiz-adv-x="962" 
d="M479 -22q-99 293 15 759q0 2 1 5.5t2 5.5q-138 131 -254 265q-23 27 -106.5 135t-135.5 159q-13 13 -18.5 31.5t0.5 36.5q1 2 3 7.5t3 8.5q15 38 48 37q2 0 7 -0.5t7 -0.5q48 -1 68 -52q20 -52 62 -114.5t66.5 -93t84.5 -100.5q85 -100 196 -211q37 119 88 234
q49 110 96.5 189.5t113.5 139.5q22 20 50.5 22t51 -10.5t35 -38t3.5 -55.5q-19 -68 -72.5 -187t-65.5 -149q-64 -165 -102 -328q-31 -131 -53.5 -375.5t-33.5 -319.5q-5 -31 -27.5 -46.5t-49 -13.5t-51 18.5t-32.5 41.5z" />
    <glyph glyph-name="Y" unicode="&#x178;" horiz-adv-x="962" 
d="M479 -22q-99 293 15 759q0 2 1 5.5t2 5.5q-138 131 -254 265q-23 27 -106.5 135t-135.5 159q-13 13 -18.5 31.5t0.5 36.5q1 2 3 7.5t3 8.5q15 38 48 37q2 0 7 -0.5t7 -0.5q48 -1 68 -52q20 -52 62 -114.5t66.5 -93t84.5 -100.5q85 -100 196 -211q37 119 88 234
q49 110 96.5 189.5t113.5 139.5q22 20 50.5 22t51 -10.5t35 -38t3.5 -55.5q-19 -68 -72.5 -187t-65.5 -149q-64 -165 -102 -328q-31 -131 -53.5 -375.5t-33.5 -319.5q-5 -31 -27.5 -46.5t-49 -13.5t-51 18.5t-32.5 41.5z" />
    <glyph glyph-name="Y" unicode="&#xdd;" horiz-adv-x="962" 
d="M479 -22q-99 293 15 759q0 2 1 5.5t2 5.5q-138 131 -254 265q-23 27 -106.5 135t-135.5 159q-13 13 -18.5 31.5t0.5 36.5q1 2 3 7.5t3 8.5q15 38 48 37q2 0 7 -0.5t7 -0.5q48 -1 68 -52q20 -52 62 -114.5t66.5 -93t84.5 -100.5q85 -100 196 -211q37 119 88 234
q49 110 96.5 189.5t113.5 139.5q22 20 50.5 22t51 -10.5t35 -38t3.5 -55.5q-19 -68 -72.5 -187t-65.5 -149q-64 -165 -102 -328q-31 -131 -53.5 -375.5t-33.5 -319.5q-5 -31 -27.5 -46.5t-49 -13.5t-51 18.5t-32.5 41.5z" />
    <glyph glyph-name="Z" unicode="Z" horiz-adv-x="831" 
d="M573 1250q-63 -2 -123.5 -3.5t-128 9.5t-115.5 37q-45 25 -50.5 70.5t25 82t77.5 39.5q26 2 53.5 -2.5t64.5 -14t53 -12.5q78 -15 157 -21q14 -1 79 -7.5t95.5 -7.5t79.5 3.5t84 19.5q25 11 42 1t26 -28t7.5 -41t-13.5 -38q-39 -50 -115.5 -145.5t-123.5 -155.5
t-108.5 -145.5t-108.5 -161.5q-106 -174 -181 -336q-21 -45 -73 -174q-7 -16 -20.5 -55.5t-25.5 -68t-27 -52.5l-93 162q12 -3 24 -1t13.5 2.5t13 6t21.5 9.5q39 16 83 25q87 18 171 5q64 -10 187 -68t193 -65q30 -3 43 -29.5t0.5 -50.5t-43.5 -21q-51 5 -102 22.5t-112 45
t-96 39.5q-86 30 -167 19q-49 -8 -89 -28q-21 -11 -37 -22l6 18q0 -2 -1 -15q-1 -66 -56.5 -92.5t-109 0.5t-50.5 92q1 28 6 56.5t16 63.5t17 55t25 63t23.5 53.5t28.5 60t25 51.5q87 184 200 352q273 404 566 585q5 -19 16 -59t16 -60q-37 -1 -110 -21t-79 -21
q-103 -22 -179 -26z" />
    <glyph glyph-name="bracketleft" unicode="[" horiz-adv-x="626" 
d="M454 26q33 7 52.5 -14.5t13.5 -50t-37 -40.5q-52 -20 -93.5 -30t-91 -12t-90.5 18.5t-71 64.5q-28 41 -41.5 102.5t-15 101.5t1 123.5t2.5 102.5q0 566 4 1018q1 63 50 90t101 8q113 -28 222 -6q30 6 49 -16t13.5 -48.5t-35.5 -32.5q-92 -18 -183 -9q3 -359 1 -808
q0 -36 1 -125.5t0.5 -154.5t-3.5 -125q0 -8 -2.5 -30.5t-3.5 -36.5t2 -32.5t10 -31.5q14 -24 42.5 -31.5t47 -5t54.5 10.5z" />
    <glyph glyph-name="backslash" unicode="\" horiz-adv-x="823" 
d="M719 63q9 -38 -17 -67t-63.5 -28t-56.5 37q-46 89 -86 190.5t-88.5 242t-69.5 197.5q-20 54 -60.5 163.5t-60.5 163.5q-9 23 -37.5 95t-45.5 121.5t-29 98.5q-10 42 18.5 74t69.5 30.5t61 -41.5q23 -46 43 -95.5t45.5 -125t34.5 -99.5q19 -52 57.5 -156.5t57.5 -157.5
q22 -60 76.5 -197.5t91 -242.5t59.5 -203z" />
    <glyph glyph-name="bracketright" unicode="]" horiz-adv-x="626" 
d="M542 392q0 -25 2 -84t1.5 -97t-4.5 -89t-19 -93t-39 -75q-30 -41 -71 -59.5t-89.5 -15.5t-88.5 13t-91 29q-31 12 -37.5 40.5t13.5 50t53 14.5q37 -8 54.5 -10.5t46.5 5t43 31.5q7 12 10 31t2 33t-3.5 36.5t-2.5 30.5q-3 60 -3.5 125t0.5 154.5t1 125.5q-2 449 1 808
q-91 -9 -183 9q-30 6 -35.5 32.5t13.5 48.5t49 16q109 -22 222 6q52 19 101.5 -8t50.5 -90q3 -339 3 -1018z" />
    <glyph glyph-name="asciicircum" unicode="^" horiz-adv-x="454" 
d="M401 1274q11 -35 -10.5 -58t-55 -21t-52.5 29q-34 50 -53 95q-1 2 -2 7t-2 7q-32 -49 -43 -80q-20 -57 -70 -49q-38 6 -58 42q-23 42 14 73q13 10 26 23.5t21.5 23t22.5 29t18.5 25.5t21 30t18.5 27q17 25 47 26t46 -26q10 -18 33 -49t32 -47q28 -50 46 -107z" />
    <glyph glyph-name="underscore" unicode="_" horiz-adv-x="684" 
d="M590 104q32 0 44.5 -25t-0.5 -51t-44 -27q-22 -1 -104.5 -3t-120 -4.5t-99.5 -12t-111 -26.5q-65 -22 -96 31q-26 45 -8 96q19 55 74 54q14 0 30 -5q49 -14 111 -21t100.5 -8t118.5 0.5t105 1.5z" />
    <glyph glyph-name="grave" unicode="`" horiz-adv-x="368" 
d="M311 1149q16 -26 2 -51.5t-40 -30t-49 14.5q-88 93 -96 101q-77 71 -77 143q0 38 25.5 61.5t58.5 21.5t63 -22q37 -29 62 -128q12 -48 51 -110z" />
    <glyph glyph-name="a" unicode="a" horiz-adv-x="899" 
d="M787 671q7 29 33 34.5t46.5 -13t14.5 -47.5q-8 -36 -20 -77.5t-32.5 -94t-44 -98t-55.5 -85.5t-67 -62t-78.5 -21.5t-89.5 30.5q-77 50 -111 153q-17 -51 -31 -78q-22 -43 -61.5 -68.5t-85.5 -20.5q-86 9 -137 121q-52 113 -35 247.5t95 231.5q48 59 127 84.5t147 -0.5
q14 39 33 71q21 36 60.5 42t71 -19t31.5 -67q0 -50 -15 -141.5t-18 -125.5q-10 -114 3 -244q0 -5 1 -17.5t1.5 -20.5t2.5 -21.5t5.5 -19.5t9.5 -14t14.5 -5.5t20.5 5.5q9 5 18 13t18.5 21.5t14.5 21.5t14.5 25.5t10.5 19.5q57 101 88 240zM357 693q5 67 17 120
q-17 10 -33 6.5t-29 -11t-25.5 -24t-21.5 -32.5t-17.5 -36.5t-14 -35.5t-9.5 -30q-37 -128 -15 -269q11 -72 49 -15q18 25 29 57q21 60 44 151q10 39 26 119z" />
    <glyph glyph-name="a" unicode="&#xe5;" horiz-adv-x="899" 
d="M787 671q7 29 33 34.5t46.5 -13t14.5 -47.5q-8 -36 -20 -77.5t-32.5 -94t-44 -98t-55.5 -85.5t-67 -62t-78.5 -21.5t-89.5 30.5q-77 50 -111 153q-17 -51 -31 -78q-22 -43 -61.5 -68.5t-85.5 -20.5q-86 9 -137 121q-52 113 -35 247.5t95 231.5q48 59 127 84.5t147 -0.5
q14 39 33 71q21 36 60.5 42t71 -19t31.5 -67q0 -50 -15 -141.5t-18 -125.5q-10 -114 3 -244q0 -5 1 -17.5t1.5 -20.5t2.5 -21.5t5.5 -19.5t9.5 -14t14.5 -5.5t20.5 5.5q9 5 18 13t18.5 21.5t14.5 21.5t14.5 25.5t10.5 19.5q57 101 88 240zM357 693q5 67 17 120
q-17 10 -33 6.5t-29 -11t-25.5 -24t-21.5 -32.5t-17.5 -36.5t-14 -35.5t-9.5 -30q-37 -128 -15 -269q11 -72 49 -15q18 25 29 57q21 60 44 151q10 39 26 119z" />
    <glyph glyph-name="a" unicode="&#xe4;" horiz-adv-x="899" 
d="M787 671q7 29 33 34.5t46.5 -13t14.5 -47.5q-8 -36 -20 -77.5t-32.5 -94t-44 -98t-55.5 -85.5t-67 -62t-78.5 -21.5t-89.5 30.5q-77 50 -111 153q-17 -51 -31 -78q-22 -43 -61.5 -68.5t-85.5 -20.5q-86 9 -137 121q-52 113 -35 247.5t95 231.5q48 59 127 84.5t147 -0.5
q14 39 33 71q21 36 60.5 42t71 -19t31.5 -67q0 -50 -15 -141.5t-18 -125.5q-10 -114 3 -244q0 -5 1 -17.5t1.5 -20.5t2.5 -21.5t5.5 -19.5t9.5 -14t14.5 -5.5t20.5 5.5q9 5 18 13t18.5 21.5t14.5 21.5t14.5 25.5t10.5 19.5q57 101 88 240zM357 693q5 67 17 120
q-17 10 -33 6.5t-29 -11t-25.5 -24t-21.5 -32.5t-17.5 -36.5t-14 -35.5t-9.5 -30q-37 -128 -15 -269q11 -72 49 -15q18 25 29 57q21 60 44 151q10 39 26 119z" />
    <glyph glyph-name="a" unicode="&#xe3;" horiz-adv-x="899" 
d="M787 671q7 29 33 34.5t46.5 -13t14.5 -47.5q-8 -36 -20 -77.5t-32.5 -94t-44 -98t-55.5 -85.5t-67 -62t-78.5 -21.5t-89.5 30.5q-77 50 -111 153q-17 -51 -31 -78q-22 -43 -61.5 -68.5t-85.5 -20.5q-86 9 -137 121q-52 113 -35 247.5t95 231.5q48 59 127 84.5t147 -0.5
q14 39 33 71q21 36 60.5 42t71 -19t31.5 -67q0 -50 -15 -141.5t-18 -125.5q-10 -114 3 -244q0 -5 1 -17.5t1.5 -20.5t2.5 -21.5t5.5 -19.5t9.5 -14t14.5 -5.5t20.5 5.5q9 5 18 13t18.5 21.5t14.5 21.5t14.5 25.5t10.5 19.5q57 101 88 240zM357 693q5 67 17 120
q-17 10 -33 6.5t-29 -11t-25.5 -24t-21.5 -32.5t-17.5 -36.5t-14 -35.5t-9.5 -30q-37 -128 -15 -269q11 -72 49 -15q18 25 29 57q21 60 44 151q10 39 26 119z" />
    <glyph glyph-name="a" unicode="&#xe2;" horiz-adv-x="899" 
d="M787 671q7 29 33 34.5t46.5 -13t14.5 -47.5q-8 -36 -20 -77.5t-32.5 -94t-44 -98t-55.5 -85.5t-67 -62t-78.5 -21.5t-89.5 30.5q-77 50 -111 153q-17 -51 -31 -78q-22 -43 -61.5 -68.5t-85.5 -20.5q-86 9 -137 121q-52 113 -35 247.5t95 231.5q48 59 127 84.5t147 -0.5
q14 39 33 71q21 36 60.5 42t71 -19t31.5 -67q0 -50 -15 -141.5t-18 -125.5q-10 -114 3 -244q0 -5 1 -17.5t1.5 -20.5t2.5 -21.5t5.5 -19.5t9.5 -14t14.5 -5.5t20.5 5.5q9 5 18 13t18.5 21.5t14.5 21.5t14.5 25.5t10.5 19.5q57 101 88 240zM357 693q5 67 17 120
q-17 10 -33 6.5t-29 -11t-25.5 -24t-21.5 -32.5t-17.5 -36.5t-14 -35.5t-9.5 -30q-37 -128 -15 -269q11 -72 49 -15q18 25 29 57q21 60 44 151q10 39 26 119z" />
    <glyph glyph-name="a" unicode="&#xe1;" horiz-adv-x="899" 
d="M787 671q7 29 33 34.5t46.5 -13t14.5 -47.5q-8 -36 -20 -77.5t-32.5 -94t-44 -98t-55.5 -85.5t-67 -62t-78.5 -21.5t-89.5 30.5q-77 50 -111 153q-17 -51 -31 -78q-22 -43 -61.5 -68.5t-85.5 -20.5q-86 9 -137 121q-52 113 -35 247.5t95 231.5q48 59 127 84.5t147 -0.5
q14 39 33 71q21 36 60.5 42t71 -19t31.5 -67q0 -50 -15 -141.5t-18 -125.5q-10 -114 3 -244q0 -5 1 -17.5t1.5 -20.5t2.5 -21.5t5.5 -19.5t9.5 -14t14.5 -5.5t20.5 5.5q9 5 18 13t18.5 21.5t14.5 21.5t14.5 25.5t10.5 19.5q57 101 88 240zM357 693q5 67 17 120
q-17 10 -33 6.5t-29 -11t-25.5 -24t-21.5 -32.5t-17.5 -36.5t-14 -35.5t-9.5 -30q-37 -128 -15 -269q11 -72 49 -15q18 25 29 57q21 60 44 151q10 39 26 119z" />
    <glyph glyph-name="a" unicode="&#xe0;" horiz-adv-x="899" 
d="M787 671q7 29 33 34.5t46.5 -13t14.5 -47.5q-8 -36 -20 -77.5t-32.5 -94t-44 -98t-55.5 -85.5t-67 -62t-78.5 -21.5t-89.5 30.5q-77 50 -111 153q-17 -51 -31 -78q-22 -43 -61.5 -68.5t-85.5 -20.5q-86 9 -137 121q-52 113 -35 247.5t95 231.5q48 59 127 84.5t147 -0.5
q14 39 33 71q21 36 60.5 42t71 -19t31.5 -67q0 -50 -15 -141.5t-18 -125.5q-10 -114 3 -244q0 -5 1 -17.5t1.5 -20.5t2.5 -21.5t5.5 -19.5t9.5 -14t14.5 -5.5t20.5 5.5q9 5 18 13t18.5 21.5t14.5 21.5t14.5 25.5t10.5 19.5q57 101 88 240zM357 693q5 67 17 120
q-17 10 -33 6.5t-29 -11t-25.5 -24t-21.5 -32.5t-17.5 -36.5t-14 -35.5t-9.5 -30q-37 -128 -15 -269q11 -72 49 -15q18 25 29 57q21 60 44 151q10 39 26 119z" />
    <glyph glyph-name="b" unicode="b" horiz-adv-x="718" 
d="M612 842q50 -69 67.5 -155t5.5 -168t-51 -159t-97 -131.5t-138 -81t-168 -11.5q-27 -21 -67.5 -9t-49.5 48q-45 185 -52 302q-6 110 -4 282q2 178 9 297q1 16 3 70t3.5 80.5t8.5 68t19 73.5q11 29 36.5 46t53 19t52.5 -15t33 -50q11 -44 13.5 -91.5t0 -121t-2.5 -93.5
v-137q77 64 169.5 44t155.5 -107zM268 260q60 9 107 44t73.5 85t43.5 111t17 121t-7 117q-10 63 -39.5 98.5t-85.5 6.5q-58 -30 -91 -137q0 -27 1 -112t0 -131q-1 -84 -19 -203z" />
    <glyph glyph-name="c" unicode="c" horiz-adv-x="688" 
d="M566 707q3 29 28.5 41.5t48.5 0.5t21 -42q-5 -72 -18.5 -142t-38 -144.5t-66.5 -137.5t-97 -102q-52 -37 -114.5 -41.5t-118.5 24.5q-112 57 -152 222q-35 140 -10 307q31 203 115 284q46 45 102 46t104 -42q83 -74 87 -243q0 -19 -10 -31.5t-24 -15t-29 0.5t-25.5 15.5
t-11.5 30.5q-2 31 -17 95.5t-31 59.5q-6 -2 -12 -16.5t-11.5 -36t-9.5 -41.5t-7.5 -40.5t-4.5 -24.5q-32 -155 -6 -319q1 -3 3.5 -21t3.5 -26t4.5 -24.5t7 -26t9.5 -21t13 -18.5q17 -17 36 -19t36 6.5t34.5 25t29 32t21.5 31.5q92 152 110 353z" />
    <glyph glyph-name="c" unicode="&#xe7;" horiz-adv-x="688" 
d="M566 707q3 29 28.5 41.5t48.5 0.5t21 -42q-5 -72 -18.5 -142t-38 -144.5t-66.5 -137.5t-97 -102q-52 -37 -114.5 -41.5t-118.5 24.5q-112 57 -152 222q-35 140 -10 307q31 203 115 284q46 45 102 46t104 -42q83 -74 87 -243q0 -19 -10 -31.5t-24 -15t-29 0.5t-25.5 15.5
t-11.5 30.5q-2 31 -17 95.5t-31 59.5q-6 -2 -12 -16.5t-11.5 -36t-9.5 -41.5t-7.5 -40.5t-4.5 -24.5q-32 -155 -6 -319q1 -3 3.5 -21t3.5 -26t4.5 -24.5t7 -26t9.5 -21t13 -18.5q17 -17 36 -19t36 6.5t34.5 25t29 32t21.5 31.5q92 152 110 353z" />
    <glyph glyph-name="d" unicode="d" horiz-adv-x="729" 
d="M494 1338q8 37 39 54t64 12.5t58 -29.5t22 -62q-4 -46 -4.5 -137t-3.5 -134q-7 -107 -11 -260q-1 -62 6.5 -266.5t-3.5 -265.5q-4 -39 -30 -65t-58 -31t-63 12.5t-43 57.5q-39 128 -46 307q-40 -163 -69 -219q-22 -43 -61.5 -68.5t-85.5 -20.5q-86 9 -137 121
q-52 113 -35 247.5t95 231.5q53 65 138.5 88t159.5 -15q4 75 14 173q4 42 13 85.5t22 100t19 83.5zM331 574q28 108 47 237q-17 12 -33.5 9t-29.5 -9.5t-26 -24t-22.5 -33t-18.5 -37t-14 -36.5l-10 -30q-37 -128 -15 -269q11 -72 49 -15q18 25 29 57q21 60 44 151z" />
    <glyph glyph-name="e" unicode="e" horiz-adv-x="700" 
d="M589 610q6 30 31.5 35.5t46.5 -13.5t17 -48q-8 -56 -27.5 -114t-52 -115.5t-73.5 -102t-97 -70.5t-117 -23q-76 4 -132.5 42t-87.5 95.5t-46.5 129t-14.5 141.5t15 134q49 227 181 291q64 31 131 -1q3 -2 14 -7t16 -7t14 -7t14.5 -9t13 -10t12.5 -12.5t10 -13.5
q26 -42 27.5 -90.5t-17 -93t-51.5 -88t-71.5 -78.5t-80.5 -63q5 -61 21 -113q26 -84 59 -103q50 -27 124 54q92 103 121 260zM365 878q-81 -88 -100 -242q24 21 42 43q34 42 56 93q7 16 11.5 34.5t3.5 40.5t-13 31z" />
    <glyph glyph-name="e" unicode="&#xeb;" horiz-adv-x="700" 
d="M589 610q6 30 31.5 35.5t46.5 -13.5t17 -48q-8 -56 -27.5 -114t-52 -115.5t-73.5 -102t-97 -70.5t-117 -23q-76 4 -132.5 42t-87.5 95.5t-46.5 129t-14.5 141.5t15 134q49 227 181 291q64 31 131 -1q3 -2 14 -7t16 -7t14 -7t14.5 -9t13 -10t12.5 -12.5t10 -13.5
q26 -42 27.5 -90.5t-17 -93t-51.5 -88t-71.5 -78.5t-80.5 -63q5 -61 21 -113q26 -84 59 -103q50 -27 124 54q92 103 121 260zM365 878q-81 -88 -100 -242q24 21 42 43q34 42 56 93q7 16 11.5 34.5t3.5 40.5t-13 31z" />
    <glyph glyph-name="e" unicode="&#xea;" horiz-adv-x="700" 
d="M589 610q6 30 31.5 35.5t46.5 -13.5t17 -48q-8 -56 -27.5 -114t-52 -115.5t-73.5 -102t-97 -70.5t-117 -23q-76 4 -132.5 42t-87.5 95.5t-46.5 129t-14.5 141.5t15 134q49 227 181 291q64 31 131 -1q3 -2 14 -7t16 -7t14 -7t14.5 -9t13 -10t12.5 -12.5t10 -13.5
q26 -42 27.5 -90.5t-17 -93t-51.5 -88t-71.5 -78.5t-80.5 -63q5 -61 21 -113q26 -84 59 -103q50 -27 124 54q92 103 121 260zM365 878q-81 -88 -100 -242q24 21 42 43q34 42 56 93q7 16 11.5 34.5t3.5 40.5t-13 31z" />
    <glyph glyph-name="e" unicode="&#xe9;" horiz-adv-x="700" 
d="M589 610q6 30 31.5 35.5t46.5 -13.5t17 -48q-8 -56 -27.5 -114t-52 -115.5t-73.5 -102t-97 -70.5t-117 -23q-76 4 -132.5 42t-87.5 95.5t-46.5 129t-14.5 141.5t15 134q49 227 181 291q64 31 131 -1q3 -2 14 -7t16 -7t14 -7t14.5 -9t13 -10t12.5 -12.5t10 -13.5
q26 -42 27.5 -90.5t-17 -93t-51.5 -88t-71.5 -78.5t-80.5 -63q5 -61 21 -113q26 -84 59 -103q50 -27 124 54q92 103 121 260zM365 878q-81 -88 -100 -242q24 21 42 43q34 42 56 93q7 16 11.5 34.5t3.5 40.5t-13 31z" />
    <glyph glyph-name="e" unicode="&#xe8;" horiz-adv-x="700" 
d="M589 610q6 30 31.5 35.5t46.5 -13.5t17 -48q-8 -56 -27.5 -114t-52 -115.5t-73.5 -102t-97 -70.5t-117 -23q-76 4 -132.5 42t-87.5 95.5t-46.5 129t-14.5 141.5t15 134q49 227 181 291q64 31 131 -1q3 -2 14 -7t16 -7t14 -7t14.5 -9t13 -10t12.5 -12.5t10 -13.5
q26 -42 27.5 -90.5t-17 -93t-51.5 -88t-71.5 -78.5t-80.5 -63q5 -61 21 -113q26 -84 59 -103q50 -27 124 54q92 103 121 260zM365 878q-81 -88 -100 -242q24 21 42 43q34 42 56 93q7 16 11.5 34.5t3.5 40.5t-13 31z" />
    <glyph glyph-name="f" unicode="f" horiz-adv-x="542" 
d="M441 640q21 20 47.5 10.5t33 -33t-12.5 -45.5q-69 -65 -178 -58q1 -14 6 -87.5t5.5 -100.5t1.5 -83.5t-3.5 -99.5t-12.5 -86q-6 -33 -30 -49t-51 -13.5t-53 19t-36 43.5q-26 69 -40 158t-16.5 152t-3.5 164q-3 -1 -8.5 -2t-8.5 -1q-29 -6 -47.5 14.5t-13 46.5t34.5 32
q23 5 43 6q4 240 51 387q29 90 95.5 141.5t152.5 19.5q141 -53 89 -285q-7 -29 -32.5 -34.5t-46 13t-14.5 47.5q3 16 5 38.5t2 52.5t-10.5 50t-31.5 20q-11 -21 -16.5 -51t-7 -51.5t-1.5 -58t-1 -50.5q-7 -159 -5 -261q73 -3 114 35z" />
    <glyph glyph-name="g" unicode="g" horiz-adv-x="858" 
d="M761 499q23 19 50 9t33 -33t-14 -45q-17 -15 -36.5 -32t-43.5 -38t-37 -32q5 -267 5 -320q0 -22 1 -90.5t0 -100.5t-3.5 -94t-11.5 -101t-23.5 -88.5t-38.5 -89.5t-57 -74q-48 -49 -115.5 -73t-131 -18.5t-116 48.5t-69.5 118q-30 130 17 282t133 288q58 93 148 193
l3 282v87t2 109q-18 -92 -30 -138q-3 -10 -14.5 -56.5t-17 -66.5t-17.5 -54t-25 -59q-22 -43 -61.5 -68.5t-85.5 -20.5q-86 9 -137 121q-52 113 -35 247.5t95 231.5q54 67 143 89t163 -21q30 -5 42 -33q5 21 7 28q10 34 38 53t59 19t59 -19t38 -53q11 -38 18 -79.5t9.5 -92
t3.5 -82.5t1.5 -93.5t0.5 -82.5q8 7 25 21.5t26 21.5zM331 574q28 108 47 237q-17 12 -33.5 9t-29.5 -9.5t-26 -24t-22.5 -33t-18.5 -37t-14 -36.5l-10 -30q-37 -128 -15 -269q11 -72 49 -15q18 25 29 57q21 60 44 151zM397 -526q55 101 55 273q0 51 -1 152t-1 152
q-54 -72 -91 -139q-96 -173 -108 -329q-10 -109 23 -149q22 -28 46.5 -24t43.5 21t33 43z" />
    <glyph glyph-name="h" unicode="h" horiz-adv-x="794" 
d="M741 483q0 -15 2 -70.5t2 -81t-3.5 -67.5t-12.5 -75q-9 -35 -37.5 -54.5t-60.5 -19t-61 20t-38 53.5q-10 37 -15.5 77.5t-6 91.5t0 80.5t4 92t4.5 79.5q1 25 5.5 88t5.5 97q2 53 -19 78t-73 7q-93 -32 -151 -214q1 -101 0 -203q0 -35 -4 -77.5t-6.5 -63t-11.5 -79.5
t-10 -68q-4 -26 -24.5 -39.5t-44 -13t-45 14.5t-27.5 38q-45 185 -52 302q-6 110 -4 282q2 178 9 297q1 16 3 70t3.5 80.5t8.5 68t19 73.5q11 29 36.5 46t53 19t52.5 -15t33 -50q11 -44 13.5 -92t0 -122t-2.5 -93q0 -26 -0.5 -78t-0.5 -79q59 78 145 99q97 22 188 -27
q87 -47 105 -183q13 -104 17 -290z" />
    <glyph glyph-name="i" unicode="i" horiz-adv-x="331" 
d="M272 524q5 -75 3.5 -173t-20.5 -171q-8 -30 -38 -47t-62.5 -10t-45.5 38q-33 76 -43.5 158t-11.5 191q0 10 -1.5 85t-1 103.5t7 82t19.5 92.5q10 30 36.5 48t55 19t54 -16t33.5 -51q12 -50 15 -107t1 -133t-1 -109zM100 1023q-15 15 -24 43q0 4 -1.5 12t-2.5 13
q0 21 9 37q6 18 19 31q14 15 31 20q15 8 37 8q27 0 49 -13q3 -3 9.5 -8t9.5 -7q17 -17 25 -42q1 -8 3 -26q0 -22 -8 -37q-6 -16 -20 -31q-13 -13 -31 -19q-17 -9 -37 -9q-26 0 -48 13q-3 2 -10 7t-10 8z" />
    <glyph glyph-name="i" unicode="&#xef;" horiz-adv-x="331" 
d="M272 524q5 -75 3.5 -173t-20.5 -171q-8 -30 -38 -47t-62.5 -10t-45.5 38q-33 76 -43.5 158t-11.5 191q0 10 -1.5 85t-1 103.5t7 82t19.5 92.5q10 30 36.5 48t55 19t54 -16t33.5 -51q12 -50 15 -107t1 -133t-1 -109zM100 1023q-15 15 -24 43q0 4 -1.5 12t-2.5 13
q0 21 9 37q6 18 19 31q14 15 31 20q15 8 37 8q27 0 49 -13q3 -3 9.5 -8t9.5 -7q17 -17 25 -42q1 -8 3 -26q0 -22 -8 -37q-6 -16 -20 -31q-13 -13 -31 -19q-17 -9 -37 -9q-26 0 -48 13q-3 2 -10 7t-10 8z" />
    <glyph glyph-name="i" unicode="&#xee;" horiz-adv-x="331" 
d="M272 524q5 -75 3.5 -173t-20.5 -171q-8 -30 -38 -47t-62.5 -10t-45.5 38q-33 76 -43.5 158t-11.5 191q0 10 -1.5 85t-1 103.5t7 82t19.5 92.5q10 30 36.5 48t55 19t54 -16t33.5 -51q12 -50 15 -107t1 -133t-1 -109zM100 1023q-15 15 -24 43q0 4 -1.5 12t-2.5 13
q0 21 9 37q6 18 19 31q14 15 31 20q15 8 37 8q27 0 49 -13q3 -3 9.5 -8t9.5 -7q17 -17 25 -42q1 -8 3 -26q0 -22 -8 -37q-6 -16 -20 -31q-13 -13 -31 -19q-17 -9 -37 -9q-26 0 -48 13q-3 2 -10 7t-10 8z" />
    <glyph glyph-name="i" unicode="&#xed;" horiz-adv-x="331" 
d="M272 524q5 -75 3.5 -173t-20.5 -171q-8 -30 -38 -47t-62.5 -10t-45.5 38q-33 76 -43.5 158t-11.5 191q0 10 -1.5 85t-1 103.5t7 82t19.5 92.5q10 30 36.5 48t55 19t54 -16t33.5 -51q12 -50 15 -107t1 -133t-1 -109zM100 1023q-15 15 -24 43q0 4 -1.5 12t-2.5 13
q0 21 9 37q6 18 19 31q14 15 31 20q15 8 37 8q27 0 49 -13q3 -3 9.5 -8t9.5 -7q17 -17 25 -42q1 -8 3 -26q0 -22 -8 -37q-6 -16 -20 -31q-13 -13 -31 -19q-17 -9 -37 -9q-26 0 -48 13q-3 2 -10 7t-10 8z" />
    <glyph glyph-name="i" unicode="&#xec;" horiz-adv-x="331" 
d="M272 524q5 -75 3.5 -173t-20.5 -171q-8 -30 -38 -47t-62.5 -10t-45.5 38q-33 76 -43.5 158t-11.5 191q0 10 -1.5 85t-1 103.5t7 82t19.5 92.5q10 30 36.5 48t55 19t54 -16t33.5 -51q12 -50 15 -107t1 -133t-1 -109zM100 1023q-15 15 -24 43q0 4 -1.5 12t-2.5 13
q0 21 9 37q6 18 19 31q14 15 31 20q15 8 37 8q27 0 49 -13q3 -3 9.5 -8t9.5 -7q17 -17 25 -42q1 -8 3 -26q0 -22 -8 -37q-6 -16 -20 -31q-13 -13 -31 -19q-17 -9 -37 -9q-26 0 -48 13q-3 2 -10 7t-10 8z" />
    <glyph glyph-name="j" unicode="j" horiz-adv-x="561" 
d="M465 499q23 19 50 9t33 -33t-14 -45l-117 -102q5 -267 5 -320q0 -22 1 -90.5t0 -100.5t-3.5 -94t-11.5 -101t-23.5 -88.5t-38.5 -89.5t-57 -74q-48 -49 -115.5 -73t-131 -18.5t-116 48.5t-69.5 118q-30 130 17 282t133 288q60 96 147 193q0 47 2 141t2 141q0 12 0.5 93
t2 112t8 89t18.5 102q10 34 38 53t59 19t59 -19t38 -53q11 -38 18 -79.5t9.5 -92t3.5 -82.5t1.5 -93.5t0.5 -82.5q9 7 26 21.5t25 21.5zM101 -526q55 101 55 273q0 51 -1.5 152.5t-1.5 151.5q-51 -67 -90 -139q-96 -173 -108 -329q-10 -109 23 -149q22 -28 46.5 -24t43.5 21
t33 43zM220 1023q-17 17 -25 43q-2 16 -3 25q0 22 8 37q6 16 20 31t31 20q15 8 37 8q26 0 48 -13q3 -2 10 -7t10 -8q16 -16 24 -42q0 -4 1.5 -12.5t2.5 -13.5q0 -21 -9 -37q-6 -18 -19 -31t-31 -19q-17 -9 -37 -9q-27 0 -49 13q-3 3 -9.5 8t-9.5 7z" />
    <glyph glyph-name="k" unicode="k" horiz-adv-x="692" 
d="M590 1107q42 19 80 -14t9 -75q-24 -34 -60 -71.5t-56 -55t-71 -61.5q-68 -58 -112 -100q-5 -5 -26.5 -24t-36.5 -34.5t-19 -28.5q-6 -19 2.5 -39t32 -48.5t25.5 -31.5q14 -21 41.5 -62t41.5 -61q52 -78 158 -234q18 -26 2 -50t-43.5 -25t-48.5 23l-210 297q-5 7 -13 17
q-3 -71 -31 -254q-4 -26 -24.5 -39.5t-44 -13t-45 14.5t-27.5 38q-45 185 -52 302q-6 110 -4 282q2 178 9 297q1 16 3 70t3.5 80.5t8.5 68t19 73.5q11 29 36.5 46t53 19t52.5 -15t33 -50q11 -44 13.5 -91.5t0 -121t-2.5 -93.5q0 -38 -0.5 -113t-0.5 -113l51 63q44 54 75 89
t80 76t98 63z" />
    <glyph glyph-name="l" unicode="l" horiz-adv-x="313" 
d="M257 1352q6 -67 7 -148t-1 -138.5t-6.5 -152.5t-5.5 -142q-3 -104 -19.5 -299t-20.5 -282q-2 -36 -30.5 -51t-57.5 0t-31 51q-2 32 -10.5 144.5t-11.5 153.5t-8.5 143t-5.5 154.5v143t5 154t14.5 141.5t23.5 149q7 34 32 48.5t51.5 9t49 -27t25.5 -51.5z" />
    <glyph glyph-name="m" unicode="m" horiz-adv-x="897" 
d="M826 414q2 -26 14 -100t10 -115q-2 -51 -48.5 -71t-83.5 16q-28 27 -47.5 63.5t-31 70t-16 83.5t-6 82t3.5 90t8 83t11.5 84.5l10.5 73.5q1 7 12 74q1 6 4 18q6 26 1.5 27t-19.5 -15q-31 -32 -76 -151q-61 -157 -70 -330q0 -2 -3 -14q0 -7 0.5 -20t0.5 -20
q1 -32 -24.5 -44.5t-51.5 0.5t-27 44q-6 196 -8 294q0 17 -0.5 47.5t-1 55.5t-1.5 47q0 9 -0.5 15t-2.5 19t-7.5 19t-14.5 4q-9 -3 -36 -57q-36 -73 -56 -179q-2 -43 0 -84q5 -75 3.5 -173t-20.5 -171q-8 -30 -38 -47t-62.5 -10t-45.5 38q-33 76 -43.5 158t-11.5 191
q0 10 -1.5 85t-1 103.5t7 82t19.5 92.5q10 30 36.5 48t55 19t54 -16t33.5 -51q1 -1 1 -4t1 -5q32 56 74 80q28 16 59.5 13t54.5 -25q8 -8 14.5 -16.5t10.5 -20.5t6.5 -19t4.5 -23.5t2.5 -20.5t1.5 -24t1 -21v-19q6 15 18 43q10 24 17.5 39.5t21.5 41.5t26.5 42t31 33.5
t37 24.5t42 6.5t48.5 -12.5q40 -20 63.5 -65t28.5 -95.5t7 -104.5t-2 -92q-4 -143 1 -215z" />
    <glyph glyph-name="n" unicode="n" horiz-adv-x="722" 
d="M676 247q9 -36 -12.5 -63.5t-53 -30t-61.5 20.5q-129 118 -126 340q1 84 26 199q10 43 26 107q2 6 10 26t13.5 37.5t3.5 24.5q-12 44 -87 -80q-9 -14 -16 -27q-43 -78 -76 -182t-50 -221q2 -135 -20 -218q-8 -30 -38 -47t-63 -10t-46 38q-33 76 -43 157t-11 192
q0 10 -1.5 85t-1 103.5t7 82t19.5 92.5q10 30 36.5 48t55 19t54 -16t33.5 -51q11 -47 15 -116q19 47 36 83t44 79.5t60.5 71t70.5 35.5q40 8 71 -1.5t48 -33t29.5 -55t15.5 -66.5t5 -68.5t-1 -60.5q-9 -115 -4.5 -248t31.5 -246z" />
    <glyph glyph-name="n" unicode="&#xf1;" horiz-adv-x="722" 
d="M676 247q9 -36 -12.5 -63.5t-53 -30t-61.5 20.5q-129 118 -126 340q1 84 26 199q10 43 26 107q2 6 10 26t13.5 37.5t3.5 24.5q-12 44 -87 -80q-9 -14 -16 -27q-43 -78 -76 -182t-50 -221q2 -135 -20 -218q-8 -30 -38 -47t-63 -10t-46 38q-33 76 -43 157t-11 192
q0 10 -1.5 85t-1 103.5t7 82t19.5 92.5q10 30 36.5 48t55 19t54 -16t33.5 -51q11 -47 15 -116q19 47 36 83t44 79.5t60.5 71t70.5 35.5q40 8 71 -1.5t48 -33t29.5 -55t15.5 -66.5t5 -68.5t-1 -60.5q-9 -115 -4.5 -248t31.5 -246z" />
    <glyph glyph-name="o" unicode="o" horiz-adv-x="557" 
d="M323 971q55 -13 95.5 -51t62 -87t32 -108t10 -114t-9.5 -105q-7 -44 -26 -95t-49.5 -103.5t-69.5 -84.5t-87 -38.5t-102 34.5q-93 70 -130 243q-39 179 19 335q15 40 57 50q0 19 10 41q24 50 79 73.5t109 9.5zM356 378q85 153 56 319q-16 95 -58 137q-18 18 -58 29.5
t-61 -7.5q24 -15 21.5 -47t-34.5 -43q-2 -1 -6 -1q-12 -191 3 -293q1 -10 4 -33.5t5 -39.5t7 -35.5t12 -32.5q40 -74 109 47z" />
    <glyph glyph-name="o" unicode="&#xf8;" horiz-adv-x="557" 
d="M323 971q55 -13 95.5 -51t62 -87t32 -108t10 -114t-9.5 -105q-7 -44 -26 -95t-49.5 -103.5t-69.5 -84.5t-87 -38.5t-102 34.5q-93 70 -130 243q-39 179 19 335q15 40 57 50q0 19 10 41q24 50 79 73.5t109 9.5zM356 378q85 153 56 319q-16 95 -58 137q-18 18 -58 29.5
t-61 -7.5q24 -15 21.5 -47t-34.5 -43q-2 -1 -6 -1q-12 -191 3 -293q1 -10 4 -33.5t5 -39.5t7 -35.5t12 -32.5q40 -74 109 47z" />
    <glyph glyph-name="o" unicode="&#xf6;" horiz-adv-x="557" 
d="M323 971q55 -13 95.5 -51t62 -87t32 -108t10 -114t-9.5 -105q-7 -44 -26 -95t-49.5 -103.5t-69.5 -84.5t-87 -38.5t-102 34.5q-93 70 -130 243q-39 179 19 335q15 40 57 50q0 19 10 41q24 50 79 73.5t109 9.5zM356 378q85 153 56 319q-16 95 -58 137q-18 18 -58 29.5
t-61 -7.5q24 -15 21.5 -47t-34.5 -43q-2 -1 -6 -1q-12 -191 3 -293q1 -10 4 -33.5t5 -39.5t7 -35.5t12 -32.5q40 -74 109 47z" />
    <glyph glyph-name="o" unicode="&#xf5;" horiz-adv-x="557" 
d="M323 971q55 -13 95.5 -51t62 -87t32 -108t10 -114t-9.5 -105q-7 -44 -26 -95t-49.5 -103.5t-69.5 -84.5t-87 -38.5t-102 34.5q-93 70 -130 243q-39 179 19 335q15 40 57 50q0 19 10 41q24 50 79 73.5t109 9.5zM356 378q85 153 56 319q-16 95 -58 137q-18 18 -58 29.5
t-61 -7.5q24 -15 21.5 -47t-34.5 -43q-2 -1 -6 -1q-12 -191 3 -293q1 -10 4 -33.5t5 -39.5t7 -35.5t12 -32.5q40 -74 109 47z" />
    <glyph glyph-name="o" unicode="&#xf4;" horiz-adv-x="557" 
d="M323 971q55 -13 95.5 -51t62 -87t32 -108t10 -114t-9.5 -105q-7 -44 -26 -95t-49.5 -103.5t-69.5 -84.5t-87 -38.5t-102 34.5q-93 70 -130 243q-39 179 19 335q15 40 57 50q0 19 10 41q24 50 79 73.5t109 9.5zM356 378q85 153 56 319q-16 95 -58 137q-18 18 -58 29.5
t-61 -7.5q24 -15 21.5 -47t-34.5 -43q-2 -1 -6 -1q-12 -191 3 -293q1 -10 4 -33.5t5 -39.5t7 -35.5t12 -32.5q40 -74 109 47z" />
    <glyph glyph-name="o" unicode="&#xf3;" horiz-adv-x="557" 
d="M323 971q55 -13 95.5 -51t62 -87t32 -108t10 -114t-9.5 -105q-7 -44 -26 -95t-49.5 -103.5t-69.5 -84.5t-87 -38.5t-102 34.5q-93 70 -130 243q-39 179 19 335q15 40 57 50q0 19 10 41q24 50 79 73.5t109 9.5zM356 378q85 153 56 319q-16 95 -58 137q-18 18 -58 29.5
t-61 -7.5q24 -15 21.5 -47t-34.5 -43q-2 -1 -6 -1q-12 -191 3 -293q1 -10 4 -33.5t5 -39.5t7 -35.5t12 -32.5q40 -74 109 47z" />
    <glyph glyph-name="o" unicode="&#xf2;" horiz-adv-x="557" 
d="M323 971q55 -13 95.5 -51t62 -87t32 -108t10 -114t-9.5 -105q-7 -44 -26 -95t-49.5 -103.5t-69.5 -84.5t-87 -38.5t-102 34.5q-93 70 -130 243q-39 179 19 335q15 40 57 50q0 19 10 41q24 50 79 73.5t109 9.5zM356 378q85 153 56 319q-16 95 -58 137q-18 18 -58 29.5
t-61 -7.5q24 -15 21.5 -47t-34.5 -43q-2 -1 -6 -1q-12 -191 3 -293q1 -10 4 -33.5t5 -39.5t7 -35.5t12 -32.5q40 -74 109 47z" />
    <glyph glyph-name="p" unicode="p" horiz-adv-x="729" 
d="M643 945q47 -58 57.5 -147.5t-9.5 -174t-58 -150.5q-58 -99 -158 -137t-205 -3q18 -322 15 -429q-1 -29 -19.5 -48t-42 -22t-47 10t-32.5 41q-66 208 -79 546q-5 170 -2 278q0 6 0.5 26.5t1 28t1.5 26.5t1.5 27.5t2.5 26t3.5 28t4.5 25.5t6.5 26.5t8 25t9.5 25.5
q14 32 47 38.5t63 -11t39 -47.5q17 -54 15 -144l24 39q32 48 72 86t87.5 62t99 12t94.5 -64zM548 562q26 42 41.5 105.5t8 130.5t-47.5 99q-19 15 -39 16.5t-38.5 -8.5t-37 -26.5t-35 -40t-31 -46.5t-27 -48.5t-20.5 -44t-14 -33.5q-37 -96 -43 -200v-19q4 0 14 -2
q72 -24 148.5 12.5t120.5 104.5z" />
    <glyph glyph-name="q" unicode="q" horiz-adv-x="722" 
d="M640 409q1 -54 6 -134.5t9 -139.5t3 -133.5t-10 -136.5q-7 -46 -43 -58.5t-74.5 6t-52.5 52.5q-32 78 -47 180t-14 191t1 187q0 34 2 108q-39 -159 -70 -219q-22 -43 -61.5 -68.5t-85.5 -20.5q-86 9 -137 121q-52 113 -35 247.5t95 231.5q54 67 143 89t163 -21
q7 -1 21 -9q11 51 27 98q11 34 38.5 49t55 11t50 -26.5t25.5 -56.5q8 -103 -1 -293t-8 -255zM329 574q28 108 47 237q-17 12 -33.5 9t-29.5 -9.5t-26 -24t-22.5 -33t-18.5 -37t-14 -36.5l-10 -30q-37 -128 -15 -269q11 -72 49 -15q18 25 29 57q21 60 44 151z" />
    <glyph glyph-name="r" unicode="r" horiz-adv-x="684" 
d="M663 806q34 -65 -14 -99q-38 -27 -87 -14q-49 14 -52 59q-1 16 5 34q5 25 4.5 53t-20.5 46.5t-53 8.5q-21 -6 -41.5 -28.5t-30 -38.5t-24.5 -45q-71 -131 -77 -294q0 -4 -2 -12q4 -67 1.5 -149.5t-19.5 -146.5q-8 -30 -38 -47t-62.5 -10t-45.5 38q-33 76 -43.5 158
t-11.5 191q0 10 -1.5 85t-1 103.5t7 82t19.5 92.5q10 30 36.5 48t55 19t54 -16t33.5 -51q5 -22 8 -37q37 67 85 111q39 35 85 45.5t95 -10.5q20 -9 36.5 -23t32.5 -37t23 -34t23.5 -44t19.5 -38z" />
    <glyph glyph-name="s" unicode="s" horiz-adv-x="632" 
d="M744 839q29 7 47 -13.5t12.5 -47t-34.5 -33.5q-213 -53 -371 -138q67 -99 82 -172q11 -53 -1 -109.5t-42 -102t-74 -78t-97 -37.5t-111 19q-68 31 -98 88.5t-23.5 119t38 121.5t80.5 102q2 2 6.5 6t7.5 6q-53 82 -74 153t2 147q13 44 52 80.5t85.5 55t96.5 10.5t82 -49
q17 -21 8 -46t-30 -31t-42 13q-14 15 -39 20t-40 -13q-2 -9 -2 -15.5t2.5 -21t2.5 -17.5q6 -61 49 -133q7 -12 23 -36q180 98 402 152zM307 262q3 6 4 12.5t1 13.5t-0.5 12.5t-3 14.5t-3.5 13t-5 13.5t-5 12.5t-6 13t-5 11q-18 39 -64 110q-27 -24 -49.5 -55.5t-35.5 -67
t-4 -70.5t44 -59q29 -23 72.5 -16.5t59.5 42.5z" />
    <glyph glyph-name="t" unicode="t" horiz-adv-x="495" 
d="M728 1317q27 9 44.5 -10t12.5 -45t-32 -35q-222 -71 -455 -77q-1 -18 -1 -52q-1 -110 -1 -331q0 -132 9 -330q4 -95 14 -142q4 -16 10.5 -31.5t16 -28.5t22.5 -10t26 27t41 25t46 -18.5t7 -45.5q-22 -53 -66.5 -80.5t-94.5 -26t-103 22.5q-33 15 -58.5 37.5t-41.5 52
t-27 57.5t-17.5 66.5t-9.5 66.5t-6 69q0 4 -0.5 7.5t-0.5 6.5q-16 199 -2 482q5 105 13 187q-5 1 -14.5 2t-13.5 1q-50 10 -112.5 8.5t-107.5 -27.5q-16 -8 -31.5 -6.5t-25.5 13t-15 25.5t0.5 29t21.5 24q44 25 101.5 33.5t97.5 5.5t109 -12q6 55 18 94.5t40 75.5
q25 28 61.5 20.5t55.5 -36.5q39 -61 41 -168q213 4 428 74z" />
    <glyph glyph-name="u" unicode="u" horiz-adv-x="745" 
d="M670 596q2 -40 8.5 -99t11 -99t6 -99.5t-6.5 -98.5q-5 -32 -31.5 -44t-56 -3.5t-44.5 30.5q-47 67 -66 152t-26 199q-18 -54 -54 -143q-80 -197 -213 -149q-43 16 -73 51.5t-45.5 88.5t-21.5 90.5t-11 94.5q-24 265 50 411q20 38 56 41.5t65.5 -22t33.5 -61.5
q6 -55 -2 -160t-8 -130q-2 -176 5 -262q5 -65 48 4q15 26 25 49q36 88 52 133q43 119 81 272q0 2 6 13q10 99 47 165q17 31 51 38.5t64.5 -9.5t39.5 -50q7 -24 9.5 -53.5t2 -51t-2.5 -56t-2 -51.5q-2 -111 2 -191z" />
    <glyph glyph-name="u" unicode="&#xfc;" horiz-adv-x="745" 
d="M670 596q2 -40 8.5 -99t11 -99t6 -99.5t-6.5 -98.5q-5 -32 -31.5 -44t-56 -3.5t-44.5 30.5q-47 67 -66 152t-26 199q-18 -54 -54 -143q-80 -197 -213 -149q-43 16 -73 51.5t-45.5 88.5t-21.5 90.5t-11 94.5q-24 265 50 411q20 38 56 41.5t65.5 -22t33.5 -61.5
q6 -55 -2 -160t-8 -130q-2 -176 5 -262q5 -65 48 4q15 26 25 49q36 88 52 133q43 119 81 272q0 2 6 13q10 99 47 165q17 31 51 38.5t64.5 -9.5t39.5 -50q7 -24 9.5 -53.5t2 -51t-2.5 -56t-2 -51.5q-2 -111 2 -191z" />
    <glyph glyph-name="u" unicode="&#xfb;" horiz-adv-x="745" 
d="M670 596q2 -40 8.5 -99t11 -99t6 -99.5t-6.5 -98.5q-5 -32 -31.5 -44t-56 -3.5t-44.5 30.5q-47 67 -66 152t-26 199q-18 -54 -54 -143q-80 -197 -213 -149q-43 16 -73 51.5t-45.5 88.5t-21.5 90.5t-11 94.5q-24 265 50 411q20 38 56 41.5t65.5 -22t33.5 -61.5
q6 -55 -2 -160t-8 -130q-2 -176 5 -262q5 -65 48 4q15 26 25 49q36 88 52 133q43 119 81 272q0 2 6 13q10 99 47 165q17 31 51 38.5t64.5 -9.5t39.5 -50q7 -24 9.5 -53.5t2 -51t-2.5 -56t-2 -51.5q-2 -111 2 -191z" />
    <glyph glyph-name="u" unicode="&#xfa;" horiz-adv-x="745" 
d="M670 596q2 -40 8.5 -99t11 -99t6 -99.5t-6.5 -98.5q-5 -32 -31.5 -44t-56 -3.5t-44.5 30.5q-47 67 -66 152t-26 199q-18 -54 -54 -143q-80 -197 -213 -149q-43 16 -73 51.5t-45.5 88.5t-21.5 90.5t-11 94.5q-24 265 50 411q20 38 56 41.5t65.5 -22t33.5 -61.5
q6 -55 -2 -160t-8 -130q-2 -176 5 -262q5 -65 48 4q15 26 25 49q36 88 52 133q43 119 81 272q0 2 6 13q10 99 47 165q17 31 51 38.5t64.5 -9.5t39.5 -50q7 -24 9.5 -53.5t2 -51t-2.5 -56t-2 -51.5q-2 -111 2 -191z" />
    <glyph glyph-name="u" unicode="&#xf9;" horiz-adv-x="745" 
d="M670 596q2 -40 8.5 -99t11 -99t6 -99.5t-6.5 -98.5q-5 -32 -31.5 -44t-56 -3.5t-44.5 30.5q-47 67 -66 152t-26 199q-18 -54 -54 -143q-80 -197 -213 -149q-43 16 -73 51.5t-45.5 88.5t-21.5 90.5t-11 94.5q-24 265 50 411q20 38 56 41.5t65.5 -22t33.5 -61.5
q6 -55 -2 -160t-8 -130q-2 -176 5 -262q5 -65 48 4q15 26 25 49q36 88 52 133q43 119 81 272q0 2 6 13q10 99 47 165q17 31 51 38.5t64.5 -9.5t39.5 -50q7 -24 9.5 -53.5t2 -51t-2.5 -56t-2 -51.5q-2 -111 2 -191z" />
    <glyph glyph-name="v" unicode="v" horiz-adv-x="784" 
d="M642 946q6 43 48 48q41 6 69 -24q30 -32 7 -76q-36 -68 -66 -148.5t-62.5 -182t-52.5 -154.5q-16 -42 -27.5 -69.5t-33 -63t-44.5 -56.5t-57 -35.5t-75 -14.5q-57 0 -102 22.5t-75 62.5t-49.5 83.5t-33.5 99.5q-24 95 -44 236q-7 52 -9 82t3.5 74t22.5 78q21 36 60.5 34
t61.5 -34q12 -18 20.5 -42t11.5 -37.5t8.5 -48t6.5 -41.5q17 -103 35 -183q2 -8 9 -49t15.5 -74t21 -71t32 -58.5t43.5 -17.5q17 2 31 13.5t25 31.5t17.5 35t15.5 40.5t11 30.5q19 50 55 150q29 81 42.5 122.5t32 110t26.5 126.5z" />
    <glyph glyph-name="w" unicode="w" horiz-adv-x="1234" 
d="M1194 705q17 -136 -25 -272.5t-136 -229.5q-58 -57 -143 -89t-176.5 -22t-150.5 70q-55 56 -75 153q-29 -40 -62 -67.5t-71.5 -42.5t-82 -9.5t-87.5 34.5q-41 27 -69 70t-41 98t-18.5 98.5t-7.5 101.5q-11 262 36 432q9 31 37.5 50t60 20.5t59 -16.5t32.5 -54
q12 -83 15 -174.5t0.5 -217t-1.5 -175.5q0 -3 -0.5 -22t0 -28.5t2.5 -25t7.5 -26.5t14.5 -18q32 -27 92 36q40 41 68 104q-9 201 73 265q23 18 46.5 15t41.5 -27q15 -21 23.5 -49.5t10 -47t1.5 -58t1 -51.5q4 -119 28 -201q27 -92 89 -108q44 -11 91 6t83 50
q69 63 104 156.5t34 193.5q0 102 -38 196q-8 21 -16 38t-22.5 42t-28.5 41.5t-34 27t-40 7.5q-48 -8 -66 33q-16 36 6 64q15 20 44 18q66 -5 120.5 -43.5t88 -97t54 -121t28.5 -127.5z" />
    <glyph glyph-name="x" unicode="x" horiz-adv-x="718" 
d="M685 243q14 -23 6.5 -43t-23 -34t-38.5 -14t-39 18q-160 175 -250 302q-116 -184 -229 -392q-9 -17 -24.5 -23t-30 -1t-26.5 15.5t-14 27t6 33.5q115 214 246 420l9 15q-81 130 -93 149q-10 15 -29.5 44.5t-31.5 48t-27.5 45.5t-25.5 50q-14 37 -8.5 72t30 57.5
t53.5 32.5t61 -3t53 -48q22 -38 55 -111.5t47 -99.5q27 -51 33 -62q2 3 7 9.5t7 10.5l66 99q4 6 20.5 26t27.5 37t11 27q-3 46 42 66.5t80 -7.5q35 -27 27 -75t-53 -58q-12 -3 -28.5 -23t-35.5 -49.5t-20 -31.5q-58 -77 -71 -96q-4 -5 -11 -17t-11 -17q2 -3 6 -10t6 -10
q38 -63 110 -190t110 -190z" />
    <glyph glyph-name="y" unicode="y" horiz-adv-x="1021" 
d="M938 506q24 17 46.5 2.5t23.5 -40t-21 -46.5q-46 -34 -106 -85q3 -147 3 -293q0 -30 1 -103t0.5 -112.5t-5 -105t-15 -110.5t-31.5 -97.5t-52 -94.5q-54 -73 -138 -113.5t-167 -21.5q-80 18 -120.5 82t-42.5 151q-8 347 304 698v115q-19 -21 -35 -33q-131 -104 -315 -84
q-55 6 -96.5 34.5t-66.5 72t-38.5 91t-17.5 101.5q-8 94 -9 166.5t12.5 164t44.5 159.5q15 34 54 42.5t74 -10t41 -54.5q9 -50 10 -107t-2 -127.5t-2 -108.5q0 -6 0.5 -47t2 -57.5t5 -48.5t12.5 -55t22 -42q28 -40 73.5 -45.5t87 14t73.5 52.5q44 45 70 114q0 80 1 120
q0 13 1 66.5t2.5 76t4 65t8.5 75.5t15 65q9 33 38 52.5t61 20t60 -18.5t36 -54q12 -51 18 -114t7.5 -109t2.5 -120.5t2 -110.5q1 -13 1 -39t1 -39q5 4 61 46zM622 -262q2 107 -2 319q-63 -87 -106 -169q-103 -194 -98 -359q2 -54 23.5 -93t69.5 -30q55 9 82 105
q29 97 31 227z" />
    <glyph glyph-name="y" unicode="&#xff;" horiz-adv-x="1021" 
d="M938 506q24 17 46.5 2.5t23.5 -40t-21 -46.5q-46 -34 -106 -85q3 -147 3 -293q0 -30 1 -103t0.5 -112.5t-5 -105t-15 -110.5t-31.5 -97.5t-52 -94.5q-54 -73 -138 -113.5t-167 -21.5q-80 18 -120.5 82t-42.5 151q-8 347 304 698v115q-19 -21 -35 -33q-131 -104 -315 -84
q-55 6 -96.5 34.5t-66.5 72t-38.5 91t-17.5 101.5q-8 94 -9 166.5t12.5 164t44.5 159.5q15 34 54 42.5t74 -10t41 -54.5q9 -50 10 -107t-2 -127.5t-2 -108.5q0 -6 0.5 -47t2 -57.5t5 -48.5t12.5 -55t22 -42q28 -40 73.5 -45.5t87 14t73.5 52.5q44 45 70 114q0 80 1 120
q0 13 1 66.5t2.5 76t4 65t8.5 75.5t15 65q9 33 38 52.5t61 20t60 -18.5t36 -54q12 -51 18 -114t7.5 -109t2.5 -120.5t2 -110.5q1 -13 1 -39t1 -39q5 4 61 46zM622 -262q2 107 -2 319q-63 -87 -106 -169q-103 -194 -98 -359q2 -54 23.5 -93t69.5 -30q55 9 82 105
q29 97 31 227z" />
    <glyph glyph-name="y" unicode="&#xfd;" horiz-adv-x="1021" 
d="M938 506q24 17 46.5 2.5t23.5 -40t-21 -46.5q-46 -34 -106 -85q3 -147 3 -293q0 -30 1 -103t0.5 -112.5t-5 -105t-15 -110.5t-31.5 -97.5t-52 -94.5q-54 -73 -138 -113.5t-167 -21.5q-80 18 -120.5 82t-42.5 151q-8 347 304 698v115q-19 -21 -35 -33q-131 -104 -315 -84
q-55 6 -96.5 34.5t-66.5 72t-38.5 91t-17.5 101.5q-8 94 -9 166.5t12.5 164t44.5 159.5q15 34 54 42.5t74 -10t41 -54.5q9 -50 10 -107t-2 -127.5t-2 -108.5q0 -6 0.5 -47t2 -57.5t5 -48.5t12.5 -55t22 -42q28 -40 73.5 -45.5t87 14t73.5 52.5q44 45 70 114q0 80 1 120
q0 13 1 66.5t2.5 76t4 65t8.5 75.5t15 65q9 33 38 52.5t61 20t60 -18.5t36 -54q12 -51 18 -114t7.5 -109t2.5 -120.5t2 -110.5q1 -13 1 -39t1 -39q5 4 61 46zM622 -262q2 107 -2 319q-63 -87 -106 -169q-103 -194 -98 -359q2 -54 23.5 -93t69.5 -30q55 9 82 105
q29 97 31 227z" />
    <glyph glyph-name="z" unicode="z" horiz-adv-x="690" 
d="M605 119q30 10 49 -10.5t13.5 -49.5t-34.5 -40q-83 -31 -147.5 -47t-145 -13t-148.5 37q-78 39 -113 108t-28 145.5t47 151.5q29 55 67 112q-12 1 -37 1t-37 1q-17 1 -29 11t-15 24t0 28t15 23.5t29 8.5q23 0 69.5 -2t69.5 -2q115 164 156 249q12 25 17 51t3 51t-19.5 42
t-49.5 21q-29 3 -58 -6t-56 -30t-45.5 -38.5t-42.5 -43.5q-20 -22 -46 -13t-33 33.5t10 49.5q175 200 371 130q53 -19 88.5 -59.5t49 -90.5t10.5 -104.5t-22 -105.5q-23 -62 -73 -144q15 0 43.5 -1t42.5 -2q28 -1 40 -24.5t0 -46.5t-40 -22q-25 0 -74 1.5t-73 2.5
q-2 -3 -16 -23.5t-17 -25t-15 -23t-16.5 -25.5t-15 -23.5t-15.5 -25.5t-13.5 -24t-14 -26.5t-12 -25t-11.5 -26.5q-24 -48 -15.5 -99.5t59.5 -74.5q18 -8 37.5 -12t42 -2.5t38.5 3t43.5 9.5t38.5 11t41.5 13.5t36.5 12.5z" />
    <glyph glyph-name="braceleft" unicode="{" horiz-adv-x="780" 
d="M579 -117q37 23 70.5 -5t24.5 -69q-18 -77 -87 -111.5t-151 -22.5q-79 12 -139.5 65.5t-92.5 131.5q-25 59 -31 130.5t0.5 126.5t21.5 133q5 28 8.5 47t9.5 64.5t5 77.5t-6.5 67t-23.5 52t-47 15q-34 -3 -57 23t-22.5 58t22.5 58q20 18 34 40.5t22.5 40.5t12.5 47.5
t5.5 44.5t-1.5 51t-4 47t-7.5 52t-7.5 48q-11 79 -13.5 136.5t13 128.5t55.5 123q55 71 130 98t159 -6q73 -33 111 -88t24 -130q-6 -30 -31 -35t-46 14t-17 47q6 45 -28 66.5t-70 2.5q-43 -24 -69 -78q-18 -40 -21 -95.5t0.5 -84t14.5 -97.5q47 -309 -87 -443
q69 -75 92 -132q27 -69 31 -155t-6 -158q-1 -12 -5.5 -49t-6.5 -55t-2.5 -51.5t2.5 -55.5t11.5 -48.5t22.5 -47.5q22 -33 52.5 -44t61 -3.5t63.5 28.5z" />
    <glyph glyph-name="verticalbar" unicode="|" horiz-adv-x="364" 
d="M279 681q0 -59 3 -203.5t0.5 -251t-14.5 -202.5q-7 -53 -47.5 -74.5t-81 -0.5t-46.5 75q-11 96 -12.5 202.5t3 251t4.5 203.5q0 36 0.5 101t1 118.5t1.5 101.5l3 168q0 18 5 56t6.5 60t-3.5 56q-14 67 38 96q43 23 89 2q52 -24 45 -85q0 -6 -2 -13q-5 -34 -4 -55t5 -60
t4 -57q1 -28 1 -84t1 -84v-321z" />
    <glyph glyph-name="braceright" unicode="}" horiz-adv-x="780" 
d="M695 724q22 -26 22.5 -58t-23 -58t-57.5 -23q-29 2 -47 -15t-23.5 -52t-6.5 -67t5 -77.5t9.5 -64.5t8.5 -47q15 -79 21.5 -133.5t1 -126t-30.5 -130.5q-32 -78 -92.5 -131.5t-139.5 -65.5q-83 -12 -152 22.5t-87 111.5q-9 41 25 69t71 5q33 -21 63.5 -28.5t61 3.5
t52.5 44q14 21 22.5 47.5t11.5 48.5t2 55t-3 52t-6.5 54.5t-5.5 49.5q-10 72 -6 158.5t31 154.5q23 57 92 132q-133 133 -86 443q19 128 16 181q-4 60 -27 105q-27 54 -73 73q-34 14 -64.5 -9.5t-25.5 -63.5q4 -29 -17 -47.5t-46 -13.5t-31 35q-14 76 26.5 133t117.5 90
q52 23 104.5 14t97 -38t78.5 -73q31 -41 48 -90.5t19.5 -105t-1 -100t-12.5 -105.5q-1 -7 -5.5 -38t-5.5 -39.5t-4 -37t-2.5 -39.5t0.5 -35.5t3.5 -37.5t8.5 -34t13.5 -35t20.5 -31t27 -31z" />
    <glyph glyph-name="asciitilde" unicode="~" horiz-adv-x="616" 
d="M464 670q4 30 29.5 43.5t49.5 1t24 -44.5q0 -76 -55 -129t-130 -41q-52 8 -103 59q-60 63 -89 73q-22 8 -33 -9q25 -35 -4 -60q-3 -2 -10 -8.5t-10 -8.5q-25 -21 -53 -9.5t-30 44.5q-5 70 43.5 118t118.5 39q8 -1 16 -3t16.5 -5.5t14 -6t15 -8t13.5 -7.5t14.5 -9l13.5 -9
q1 -1 11 -8t16.5 -11t19.5 -12.5t22.5 -12t21.5 -8.5t20.5 -4.5t17 3t13.5 11t7 22.5z" />
    <glyph glyph-name="nonbreakingspace" unicode="&#xa0;" horiz-adv-x="516" 
 />
    <glyph glyph-name="cent" unicode="&#xa2;" horiz-adv-x="741" 
d="M588 456q9 29 36.5 34.5t48 -13t12.5 -48.5q-28 -97 -85 -174t-136 -109v-183q0 -31 -25 -43.5t-50.5 0t-25.5 43.5v165q-21 0 -42 3q-74 12 -127.5 60t-80.5 118.5t-38 140.5t-11 144q0 53 8 112t28 125t49 118.5t77.5 88.5t108.5 38h25v161q0 31 25 43.5t50.5 0
t25.5 -43.5v-187q137 -72 163 -333q3 -29 -19.5 -40.5t-47.5 0.5t-29 40q-6 45 -10 69.5t-16.5 62t-31.5 62.5q-6 8 -8 10v-329t1 -329q24 14 34 23q55 48 91 170zM346 264q8 -7 17 -11q-1 116 -1 347.5t-1 347.5q-20 -12 -35 -39q-72 -125 -72 -340q0 -226 92 -305z" />
    <glyph glyph-name="sterling" unicode="&#xa3;" horiz-adv-x="708" 
d="M558 1300q42 -82 61.5 -180t17.5 -192.5t-21 -189.5q-6 -29 -32 -34.5t-47.5 13t-15.5 47.5q25 109 12.5 246.5t-66.5 236.5q-18 33 -36.5 37t-31.5 -30q-16 -47 -27 -102q-17 -87 -21 -212q1 -62 0 -80t3 -79.5t5 -79.5t6 -79.5t6 -79.5q23 0 69 1t69 1q30 0 42 -24
t0 -48.5t-42 -24.5l-132 -3q9 -147 8 -200q11 2 33 0q24 -3 45 -14t39.5 -32t29.5 -36t29 -44t25 -39q17 -26 1.5 -50t-42.5 -24.5t-47 23.5q-55 85 -59 89q-21 26 -57 15q-7 -79 -50 -122l-2 2q-20 -22 -47 -24.5t-50 22.5q-30 37 -41.5 87t-13.5 135.5t-3 100.5
q-2 17 -5 52.5t-5 53.5q-11 0 -32 -0.5t-32 -0.5q-30 0 -42.5 24.5t0 50t42.5 25.5q9 0 28 0.5t28 0.5q-6 82 -8 123q-16 356 83 594q25 60 59.5 99.5t87.5 47.5q58 9 104.5 -20t74.5 -83z" />
    <glyph glyph-name="currency" unicode="&#xa4;" horiz-adv-x="1189" 
d="M1073 1462q25 17 50 3.5t29.5 -39.5t-13.5 -49q-41 -41 -86 -83.5t-107.5 -100.5t-87.5 -81q12 -20 20 -38q47 -106 56 -228.5t-19 -236.5q107 -145 188 -269q11 -19 9.5 -38.5t-14.5 -34t-29.5 -23t-36.5 -5t-34 19.5q-80 92 -148 179q-60 -110 -156.5 -176.5
t-212.5 -56.5q-156 14 -249 163q-45 -66 -79 -119q-19 -24 -44.5 -23.5t-41.5 24t0 49.5q53 89 112 179q-23 65 -36 135q-54 309 105 598q1 1 2.5 3.5t2.5 4.5q-53 76 -93 143q-16 27 -7.5 51t27 40t45.5 16t47 -21q75 -79 162 -191q57 38 120.5 42t119 -19t104.5 -68
q155 155 295 250zM708 1140q-101 101 -212 35q15 -21 108 -149q18 20 104 114zM389 1036q-61 -158 -49 -330q78 103 156 194q-17 23 -53.5 68.5t-53.5 67.5zM669 382q71 55 112 145q-41 53 -114.5 150.5t-93.5 123.5q-1 1 -3.5 4t-3.5 5q-95 -110 -200 -251q28 -107 75 -170
q27 -37 68.5 -47.5t82.5 1t77 39.5zM831 721q9 103 -7 191q-10 58 -44 125q-54 -52 -106 -106q4 -5 10.5 -14t9.5 -13q23 -31 68.5 -92t68.5 -91z" />
    <glyph glyph-name="yen" unicode="&#xa5;" horiz-adv-x="1161" 
d="M1054 402q30 0 42 -24t0 -48.5t-42 -24.5q-12 -1 -37.5 -1t-38.5 -1q-2 -182 -64 -278q-53 -81 -139.5 -109t-175.5 8q-31 13 -41 43t6 55.5t52 26.5q43 1 68.5 24t32 56t9.5 71t0 70v28q-13 0 -40 -1t-40 -1q-30 0 -42.5 24.5t0 50t42.5 25.5q14 0 40 0.5t39 0.5v43
q-14 0 -39.5 -1t-39.5 -1q-30 0 -42.5 24.5t0 50t42.5 25.5q14 0 40 0.5t40 0.5q0 17 0.5 49t0.5 49v92v109v93q-38 -109 -86 -230q-16 -41 -24 -61t-26.5 -59.5t-33 -61t-38 -50.5t-47.5 -44t-57 -26t-69 -10q-57 1 -102.5 26.5t-73.5 63t-49 90.5t-30.5 100t-15.5 101
q-27 253 32 645q7 44 43 64t75 14t69.5 -35t27.5 -72q-4 -55 -12 -155t-13.5 -182.5t-7.5 -155.5q-4 -153 4 -242q1 -20 2.5 -30.5t4.5 -31t8.5 -32t14.5 -25t22.5 -19t31.5 -4.5q26 1 49 16t41.5 42t28 46t23.5 50q39 92 89 227q37 100 125 354q3 87 10 156q5 52 40 81.5
t75.5 29.5t75 -29.5t38.5 -81.5q8 -100 11 -222.5t2.5 -196.5t-3.5 -232.5t-4 -205.5q12 0 38 0.5t38 0.5q30 0 42 -24t0 -48.5t-42 -24.5q-12 -1 -38.5 -1t-38.5 -1q0 -7 0.5 -21.5t0.5 -22.5q12 0 38 0.5t38 0.5z" />
    <glyph glyph-name="copyright" unicode="&#xa9;" horiz-adv-x="1306" 
d="M872 566q9 31 37 37t50 -14t15 -51q-29 -127 -141.5 -184t-239.5 -20q-88 26 -147 104t-79.5 169.5t-13.5 184.5q4 51 16.5 106.5t37 114.5t57.5 105.5t82 77t106 31.5q52 1 106 -35t89 -84q24 -33 37.5 -79.5t16.5 -79.5t5 -89q1 -30 -22.5 -42t-48 0.5t-26.5 41.5
q-6 121 -35 171q-23 40 -53 41t-55 -36q-40 -56 -64.5 -127t-27.5 -140q-7 -160 72 -273q34 -49 83.5 -50.5t89 34t53.5 86.5zM1036 1300q79 -71 128.5 -167.5t66 -201.5t8.5 -212t-39 -209q-29 -98 -86.5 -182.5t-133.5 -145.5t-174.5 -89.5t-201.5 -13.5
q-142 21 -256.5 107.5t-182.5 209.5t-88 265q-35 251 38 468q51 150 116 206q18 16 38.5 23t32.5 7.5t39.5 -2.5t37.5 -4q11 0 23 -6q88 68 205 82.5t230 -22t199 -113.5zM1123 631q34 182 -9 350t-177 270q-79 60 -181 81t-202 -11t-157 -118q-20 -30 -56 -21
q-10 -19 -15 -33q-37 -104 -52 -193q-30 -182 4 -360q16 -83 49.5 -156t84.5 -133t124.5 -93.5t161.5 -30.5q87 3 162 43t126.5 104t86 140.5t50.5 160.5z" />
    <glyph glyph-name="softhyphen" unicode="&#xad;" 
 />
    <glyph glyph-name="registered" unicode="&#xae;" horiz-adv-x="1306" 
d="M1036 1300q79 -71 128.5 -167.5t66 -201.5t8.5 -212t-39 -209q-29 -98 -86.5 -182.5t-134 -145.5t-175 -89.5t-201.5 -13.5q-142 21 -256.5 107.5t-182 209.5t-87.5 265q-35 251 38 468q51 150 116 206q18 16 38.5 23t32.5 7.5t39.5 -2.5t37.5 -4q11 0 23 -6
q88 68 205 82.5t230 -22t199 -113.5zM1123 631q34 182 -9 350t-177 270q-79 60 -181 81t-202 -11t-157 -118q-20 -30 -56 -21q-10 -19 -15 -33q-37 -104 -52 -193q-30 -182 4 -360q16 -83 49.5 -156t84.5 -133t124.5 -93.5t161.5 -30.5q87 3 162 43t126.5 104t86 140.5
t50.5 160.5zM895 1197q152 -79 -9 -311q-82 -118 -211 -185h1q29 -37 57 -96q4 -9 17.5 -38t19.5 -40.5t19.5 -35t24.5 -36t28 -28t36 -25.5q17 -9 22.5 -24.5t1 -29.5t-15 -26t-27 -14t-33.5 6q-84 45 -141 150q-6 11 -28 59.5t-42.5 79.5t-46.5 49v-10q0 -1 -3 -13
q1 -10 3.5 -46.5t3.5 -50t2.5 -44.5t1.5 -50t-1 -45t-3 -49q-2 -19 -14 -36.5t-29.5 -27.5t-36 -13t-35.5 7t-27 32q-37 85 -52 176.5t-21 216.5q-7 90 -5.5 205.5t17.5 204.5q7 40 37.5 57.5t63.5 11.5t60.5 -32t29.5 -63q2 -58 2 -88q24 45 49 81q20 29 42.5 53t51.5 45
t58.5 32t64 9.5t67.5 -18.5zM826 1001q20 18 32.5 44t4 48t-44.5 22q-24 1 -49 -13.5t-42.5 -33.5t-37.5 -49.5t-29.5 -49t-22.5 -45.5q-14 -28 -24 -55q71 32 111 58q74 48 102 74z" />
    <glyph glyph-name="onequarter" unicode="&#xbc;" horiz-adv-x="1267" 
d="M291 859q-3 -45 -42 -70.5t-80.5 -13.5t-51.5 61q-42 210 -51 531q-1 40 19.5 66.5t50.5 32t61.5 -1t55 -33t26.5 -64.5q27 -308 12 -508zM734 1476q25 46 76 47.5t85.5 -35.5t17.5 -87q-20 -59 -45.5 -126.5l-42.5 -112.5t-52 -129t-46 -110.5t-54.5 -128t-49.5 -114.5
q-65 -153 -152 -350q-10 -23 -37 -87t-42 -97.5t-41 -82.5t-53 -87q-32 -45 -81.5 -47.5t-82 34t-21.5 91.5q9 45 27 98.5t32 86.5t43.5 98t38.5 87q65 153 152 350q13 29 51 115.5t54.5 124t50.5 112t57 122.5t54.5 110.5t60.5 117.5zM1195 158q1 -8 3.5 -31t3.5 -33
t2.5 -30t0.5 -32.5t-3.5 -29.5t-7.5 -32q-13 -41 -46.5 -58.5t-70.5 -8t-62 42.5q-9 12 -16.5 25.5t-13 31t-9 28t-7 33.5t-4.5 30t-4 34t-3 30q-8 73 -12 183q-62 -6 -134 -45q-55 -30 -106.5 0.5t-56.5 92.5q-14 192 9 340q5 33 32 51t58 17.5t58.5 -18.5t34.5 -50
q18 -82 23 -204q49 7 85 7q8 118 37 223q9 31 30.5 49t47.5 19t50.5 -7.5t42 -32t18.5 -54.5q3 -64 2 -190.5t2 -190.5q4 -80 16 -190z" />
    <glyph glyph-name="onehalf" unicode="&#xbd;" horiz-adv-x="1267" 
d="M291 859q-3 -45 -42 -70.5t-80.5 -13.5t-51.5 61q-42 210 -51 531q-1 40 19.5 66.5t50.5 32t61.5 -1t55 -33t26.5 -64.5q27 -308 12 -508zM913 1401q-20 -59 -45.5 -126.5l-42.5 -112.5t-52 -129t-46 -110.5t-54.5 -128t-49.5 -114.5q-65 -153 -152 -350q-10 -23 -37 -87
t-42 -97.5t-41 -82.5t-53 -87q-32 -45 -81.5 -47.5t-82 34t-21.5 91.5q9 45 27 98.5t32 86.5t43.5 98t38.5 87q65 153 152 350q13 29 51 115.5t54.5 124t50.5 112t57 122.5t54.5 110.5t60.5 117.5q25 46 76 47.5t85.5 -35.5t17.5 -87zM1130 103q18 26 48 23.5t43 -25
t-1 -51.5q-57 -90 -170 -77q-22 3 -96 37t-108 28q-2 -3 -5.5 -8t-5.5 -8v1q-33 -57 -97 -57q-61 0 -97.5 58t0.5 111q122 170 184 255q13 17 39.5 51.5t42.5 56t35 53.5t30 61q26 70 1 115q-25 37 -62 34t-66 -36q-37 -41 -35 -111q1 -15 1.5 -43t1.5 -51.5t3 -43.5
q3 -23 -16.5 -38t-44 -12t-34.5 24q-27 61 -34.5 99t1.5 104q19 92 77 152q62 65 154.5 70t160.5 -53q57 -49 75.5 -121t5 -141.5t-49.5 -135.5q-54 -100 -188 -282q6 -3 21.5 -12t24 -14t24.5 -13.5t26.5 -12.5t25.5 -8.5t25.5 -5t22 1t21 8t16.5 17.5z" />
    <glyph glyph-name="threequarters" unicode="&#xbe;" horiz-adv-x="1265" 
d="M733 1476q25 46 76 47.5t85 -35.5t17 -87q-20 -59 -45.5 -126.5l-42.5 -112.5t-52 -129t-46 -110.5t-54.5 -128t-49.5 -114.5q-100 -234 -151 -350q-9 -20 -37 -86.5t-42.5 -98.5t-41 -81.5t-53.5 -87.5q-32 -45 -81.5 -47.5t-82 34t-21.5 91.5q9 45 27 98.5t32 86.5
t43.5 98t38.5 87q65 153 152 350q224 507 329 702zM1194 158q0 -4 3.5 -30.5t4 -34t1.5 -29.5t0 -33.5t-3.5 -28.5t-7.5 -32q-13 -41 -46.5 -58.5t-70 -8t-61.5 42.5q-8 11 -15 24.5t-12 23t-9.5 28t-6.5 25.5t-5 29t-3.5 26t-3.5 30l-3 26q-7 61 -11 183q-63 -7 -135 -45
q-55 -30 -106.5 0.5t-56.5 92.5q-14 192 9 340q5 33 32 51t58.5 17.5t59 -18.5t34.5 -50q18 -82 23 -204q49 7 85 7q8 123 36 223q14 51 60 65t87 -13t43 -78q3 -64 2 -190.5t2 -190.5q4 -80 16 -190zM196 1022q17 -32 49 -38.5t55.5 14.5t21.5 57q-2 39 -34.5 57.5
t-71.5 11.5q-36 -6 -67.5 9.5t-49 41.5t-15 60t30.5 62q8 8 24 24.5t24 24.5h-24q-33 0 -55 18t-27.5 44t0 52t27.5 44.5t55 19.5q207 5 248 8q31 2 53.5 -14.5t31 -42t4 -54t-21.5 -49.5q-64 -76 -97 -114q62 -50 84.5 -116t-7.5 -149q-21 -50 -65 -80.5t-92 -35t-94.5 19
t-72.5 74.5q-14 27 2.5 51.5t41.5 24.5t42 -25z" />
    <glyph glyph-name="quoteright" unicode="&#x2019;" horiz-adv-x="317" 
d="M132 1488q37 10 70.5 -6t50 -45t14 -65.5t-29.5 -63.5q-5 -5 -7.5 -11t-4 -17.5t-1.5 -13.5q-6 -24 -17 -50q-21 -50 -56 -89q-21 -23 -46.5 -14t-33 34.5t8.5 51.5q33 41 33 91q-68 37 -58 109q5 32 25.5 56t51.5 33z" />
    <glyph glyph-name="quotedblright" unicode="&#x201d;" horiz-adv-x="544" 
d="M132 1488q37 10 70.5 -6t50 -45t14 -65.5t-29.5 -63.5q-5 -5 -7.5 -11t-4 -17.5t-1.5 -13.5q-6 -24 -17 -50q-21 -50 -56 -89q-21 -23 -46.5 -14t-33 34.5t8.5 51.5q33 41 33 91q-68 37 -58 109q5 32 25.5 56t51.5 33zM359 1488q37 10 70.5 -6t50 -45t14 -65.5
t-29.5 -63.5q-5 -5 -7 -11.5t-3 -16.5t-2 -14q-6 -24 -17 -50q-20 -48 -57 -89q-21 -23 -46.5 -14t-33 34.5t8.5 51.5q33 41 33 91q-68 37 -58 109q5 32 25.5 56t51.5 33z" />
    <glyph glyph-name="perthousand" unicode="&#x2030;" horiz-adv-x="1773" 
d="M933 1291q-30 -127 -100 -359t-96 -333q-41 -155 -83 -358q-4 -17 -16 -81.5t-19 -94t-23 -77t-36 -82.5q-17 -31 -54 -40t-70 8t-40 54q-5 25 -7 51t0.5 57.5t3.5 50.5t8 57.5t9.5 50.5t12.5 56.5t11 50.5q38 176 86 357q3 12 10 37t10 38q-73 36 -143 88
q-33 -39 -71 -60.5t-85 -21.5t-95 28q-56 33 -83 107.5t-22 151t44 142.5t104 85q1 0 1 1l2 1q32 24 67 4q63 48 131 23q55 -21 80 -79.5t25 -126.5q0 -77 -42 -166q50 -40 115 -76q91 317 194 528q23 47 70 48t79.5 -36t21.5 -84zM286 870q10 7 28 23q-51 49 -81 101
q-4 -30 -1 -53q0 -3 1.5 -17t3 -23.5t5.5 -15.5q0 -38 44 -15zM387 1042q1 21 2.5 52t-10 61t-36.5 32q-21 2 -32 -16t-10 -39.5t3 -36.5q9 -32 48 -82q6 -8 22 -26q8 25 13 55zM977 523q84 -25 139.5 -91.5t68.5 -144t-19.5 -157t-110.5 -127.5q-86 -53 -174.5 -23
t-122.5 125q-35 101 -15 209.5t84 192.5q28 36 73.5 40t73.5 -23h1q1 -1 2 -1zM1006 109q62 32 76 92.5t-14.5 118t-81.5 88.5q-30 -103 -37 -186q-6 -80 5 -103q14 -29 52 -10zM1460 523q84 -25 139.5 -91.5t68.5 -144t-19.5 -157t-110.5 -127.5q-86 -53 -174.5 -23
t-122.5 125q-35 101 -15 209.5t84 192.5q28 36 73.5 40t73.5 -23h1zM1489 109q62 32 76 92.5t-14.5 118t-81.5 88.5q-30 -103 -37 -186q-6 -80 5 -103q15 -28 52 -10z" />
    <glyph glyph-name="Euro" unicode="&#x20ac;" horiz-adv-x="917" 
d="M751 381q7 30 33.5 35.5t47.5 -13.5t15 -49q-41 -197 -155 -271q-61 -39 -129 -38.5t-130 37.5q-179 109 -217 444l-129 -3q-30 0 -42.5 24.5t0 50t42.5 25.5q20 1 60 1t60 1q-3 42 -3 85q-19 0 -58 -1t-59 -1q-30 0 -42.5 24.5t0 49.5t42.5 25q20 1 60 1t60 1
q17 258 113 441q29 56 79 94.5t106 52t114.5 -5t102.5 -70.5q57 -67 86 -160t28 -183.5t-18 -181.5q-7 -29 -33 -34.5t-46.5 13t-14.5 47.5q31 147 -9 284q-50 175 -128 185q-13 2 -24.5 -1.5t-21.5 -12.5t-18 -18.5t-15.5 -25t-13 -27.5t-11 -29.5t-8.5 -27.5t-7.5 -26.5
t-5.5 -20.5q-35 -122 -52 -257l-3 -33q15 0 44 1t44 1q30 0 42 -24t0 -49t-42 -25q-16 0 -47.5 -1t-47.5 -1q-1 -28 1 -86q15 0 47 0.5t47 0.5q30 0 42 -24t0 -48.5t-42 -24.5q-14 0 -42.5 -1t-43.5 -1q10 -96 34 -209q41 -190 157 -165q35 7 62 30t44.5 59.5t26.5 65.5
t18 70z" />
    <glyph glyph-name="trademark" unicode="&#x2122;" horiz-adv-x="1525" 
d="M633 1518q21 23 48 13.5t35 -35t-10 -51.5q-67 -77 -195 -68q2 -18 4 -53q1 -27 4 -81.5t4 -82.5q1 -16 3.5 -67.5t3 -75.5t1 -65.5t-2.5 -75.5t-8 -67q-7 -42 -45 -57.5t-77 1.5t-49 56q-9 38 -15 86.5t-7.5 77.5t-3 93.5t-2.5 80.5q-1 30 -2.5 89t-2.5 88q-2 69 8 93
q-94 12 -130 -48q-9 -16 -24 -21.5t-28.5 -0.5t-25 15t-13.5 25.5t6 31.5q31 56 89 81t126 19q25 -2 98 -22.5t125 -19t86 40.5zM1449 748q19 -29 9 -55.5t-31 -44.5t-50.5 -18t-49.5 24q-34 40 -54 84t-28 103t-10 92t-3 107v95q-18 -42 -32 -69.5t-39 -58.5t-53 -46
q-88 -47 -150 5q2 -98 -10 -161q-8 -43 -42 -55t-69.5 5t-49.5 50q-15 36 -23 82t-9.5 75t-1.5 90t-1 79q0 42 -1.5 81.5t8.5 82.5t33 73q36 48 86 47.5t86 -47.5q7 -9 13.5 -19.5t11 -18.5t11 -21.5t9.5 -20t9 -22.5t8 -20.5t8.5 -22.5t7.5 -21h1l204 399q20 40 64 46
t79 -22t34 -72q-2 -74 -4 -222t-4 -222q0 -24 -4.5 -87t-5 -100.5t9.5 -88t33 -85.5z" />
  </font>
</defs>
</svg>
